<?xml version="1.0" encoding="utf-8"?>
<!-- Generator: Adobe Illustrator 28.1.0, SVG Export Plug-In . SVG Version: 6.00 Build 0)  -->
<svg version="1.1" id="레이어_1" xmlns="http://www.w3.org/2000/svg" xmlns:xlink="http://www.w3.org/1999/xlink" x="0px"
	 y="0px" viewBox="0 0 1920 1920" style="enable-background:new 0 0 1920 1920;" xml:space="preserve">
<style type="text/css">
	.st0{fill:none;stroke:#000000;stroke-miterlimit:10;stroke-dasharray:11.9707,11.9707;}
	.st1{fill:none;stroke:#000000;stroke-miterlimit:10;stroke-dasharray:11.9904,11.9904;}
	.st2{opacity:0.25;}
	.st3{fill:#3C70BA;}
	.st4{fill:#BC3B3B;}
	.st5{fill:#FFCE00;}
	.st6{fill:none;stroke:#000000;stroke-miterlimit:10;}
</style>
<g>
	<g>
		<g>
			<circle class="st0" cx="672.1" cy="1026.9" r="647.7"/>
		</g>
		<g>
			<circle class="st1" cx="672.1" cy="1026.9" r="503.8"/>
		</g>
		<g>
			<circle class="st0" cx="960" cy="1026.9" r="647.7"/>
		</g>
		<g>
			<circle class="st1" cx="960" cy="1026.9" r="503.8"/>
		</g>
		<g>
			<circle class="st0" cx="1247.9" cy="1026.9" r="647.7"/>
		</g>
		<g>
			<circle class="st1" cx="1247.9" cy="1026.9" r="503.8"/>
		</g>
		<g class="st2">
			<path d="M816.1,544c0,0,0.1,0,0.1,0c0-0.1,0.1-0.1,0.1-0.1C816.2,544,816.2,544,816.1,544z M816.2,1509.8c0,0-0.1,0-0.1,0
				c0.1,0,0.2,0,0.2,0.1C816.3,1509.9,816.2,1509.8,816.2,1509.8z"/>
			<path class="st3" d="M1319.8,1026.9c0,191.9-83.4,364.3-216,482.9c0,0.1-0.1,0.1-0.1,0.1c0,0,0,0,0,0
				c-43.1,38.5-91.4,71.4-143.7,97.4c-45.2,22.5-93.5,39.8-143.9,51.3c-46.3,10.5-94.5,16.1-143.9,16.1
				c-357.7,0-647.7-290-647.7-647.7c0-357.7,290-647.7,647.7-647.7c49.5,0,97.6,5.5,143.9,16.1C707.2,420,608.8,472.1,528.4,543.9
				c-208.2,61.9-360.1,254.7-360.1,483s151.9,421.1,360.1,483c45.5,13.5,93.8,20.8,143.7,20.8c50,0,98.3-7.3,143.9-20.9
				c0.1,0,0.2,0,0.2,0.1c0,0-0.1-0.1-0.1-0.1c51.9-15.5,100.4-39.1,143.8-69.4c130.5-91,215.9-242.3,215.9-413.5
				S1090.5,704.5,960,613.4c43.4-30.3,91.9-53.9,143.8-69.4C1236.4,662.6,1319.8,835,1319.8,1026.9z"/>
			<path d="M816.2,1509.8c0,0-0.1,0-0.1,0c0.1,0,0.2,0,0.2,0.1C816.3,1509.9,816.2,1509.8,816.2,1509.8z M1103.8,1509.8
				c0,0.1-0.1,0.1-0.1,0.1c0.1,0,0.2-0.1,0.2-0.1C1103.9,1509.8,1103.9,1509.8,1103.8,1509.8z M1103.7,543.9c0,0,0.1,0.1,0.1,0.1
				c0,0,0.1,0,0.1,0C1103.9,544,1103.8,544,1103.7,543.9z M816.1,544c0,0,0.1,0,0.1,0c0-0.1,0.1-0.1,0.1-0.1
				C816.2,544,816.2,544,816.1,544z"/>
			<path class="st4" d="M1607.7,1026.9c0,191.9-83.5,364.4-216.1,483c-80.4,71.9-178.8,124-287.6,148.7h0
				c-46.3,10.5-94.4,16.1-143.9,16.1c-49.5,0-97.6-5.5-143.9-16.1c50.5-11.4,98.7-28.8,143.9-51.3c52.3-26,100.6-58.8,143.7-97.4
				c0,0,0,0,0,0c0.1,0,0.2-0.1,0.2-0.1c208.1-61.9,359.8-254.7,359.8-482.9S1312,605.9,1103.9,544c45.6-13.6,93.9-20.9,143.9-20.9
				c49.9,0,98.1,7.3,143.7,20.8C1524.2,662.5,1607.7,835,1607.7,1026.9z"/>
			<path class="st4" d="M1103.9,395.3c-50.5,11.4-98.7,28.8-143.9,51.3c-52.3,26-100.6,58.8-143.7,97.4c-0.1,0-0.2,0.1-0.2,0.1
				C608,605.9,456.2,798.7,456.2,1026.9s151.7,421,359.8,482.9c-45.6,13.6-93.9,20.9-143.9,20.9c-49.9,0-98.1-7.3-143.7-20.8
				c-132.6-118.6-216.1-291-216.1-483c0-191.9,83.5-364.4,216.1-483c80.4-71.9,178.8-124,287.6-148.7
				c46.3-10.5,94.5-16.1,143.9-16.1C1009.5,379.2,1057.6,384.8,1103.9,395.3z"/>
			<path d="M816.2,1509.8c0,0-0.1,0-0.1,0c0.1,0,0.2,0,0.2,0.1C816.3,1509.9,816.2,1509.8,816.2,1509.8z M1103.8,1509.8
				c0,0.1-0.1,0.1-0.1,0.1c0.1,0,0.2-0.1,0.2-0.1C1103.9,1509.8,1103.9,1509.8,1103.8,1509.8z M1103.7,543.9c0,0,0.1,0.1,0.1,0.1
				c0,0,0.1,0,0.1,0C1103.9,544,1103.8,544,1103.7,543.9z M816.1,544c0,0,0.1,0,0.1,0c0-0.1,0.1-0.1,0.1-0.1
				C816.2,544,816.2,544,816.1,544z"/>
			<path d="M1103.8,1509.8c0,0.1-0.1,0.1-0.1,0.1c0.1,0,0.2-0.1,0.2-0.1C1103.9,1509.8,1103.9,1509.8,1103.8,1509.8z M1103.7,543.9
				c0,0,0.1,0.1,0.1,0.1c0,0,0.1,0,0.1,0C1103.9,544,1103.8,544,1103.7,543.9z"/>
			<path class="st5" d="M1895.6,1026.9c0,357.7-290,647.7-647.7,647.7c-49.5,0-97.6-5.5-143.9-16.1
				c108.8-24.7,207.2-76.8,287.6-148.7c208.2-61.9,360.1-254.7,360.1-483s-151.9-421.1-360.1-483c-45.5-13.5-93.8-20.8-143.7-20.8
				c-50,0-98.3,7.3-143.9,20.9c-0.1,0-0.2,0-0.2-0.1c0,0,0.1,0.1,0.1,0.1c-51.9,15.5-100.4,39.1-143.8,69.4
				c-130.5,91-215.9,242.3-215.9,413.5s85.4,322.4,215.9,413.5c-43.4,30.3-91.9,53.9-143.8,69.4c-132.6-118.6-216-291-216-482.9
				s83.4-364.3,216-482.9c0-0.1,0.1-0.1,0.1-0.1c43.1-38.5,91.4-71.4,143.7-97.4c45.2-22.5,93.5-39.8,143.9-51.3h0
				c46.3-10.5,94.5-16.1,143.9-16.1C1605.6,379.2,1895.6,669.2,1895.6,1026.9z"/>
		</g>
	</g>
	<g>
		<line class="st6" x1="312.3" y1="188.9" x2="312.3" y2="1026.9"/>
		<line class="st6" x1="1607.7" y1="1026.9" x2="1607.7" y2="188.9"/>
		<g>
			<g>
				<line class="st6" x1="343" y1="260.8" x2="1577" y2="260.8"/>
				<g>
					<path d="M346.6,260.8l4.4-7.2l-0.2-0.2l-11.8,4.7c-4.1,0.9-8.2,1.8-12.3,2.7c4.1,0.9,8.2,1.8,12.3,2.7l11.8,4.7l0.2-0.1
						L346.6,260.8z"/>
				</g>
				<g>
					<path d="M1573.4,260.8l-4.4-7.2l0.2-0.2l11.8,4.7c4.1,0.9,8.2,1.8,12.3,2.7c-4.1,0.9-8.2,1.8-12.3,2.7l-11.8,4.7l-0.2-0.1
						L1573.4,260.8z"/>
				</g>
			</g>
		</g>
		<g>
			<g>
				<line class="st6" x1="702.8" y1="1805.9" x2="929.3" y2="1805.9"/>
				<g>
					<path d="M706.4,1805.9l4.4-7.2l-0.2-0.2l-11.8,4.7c-4.1,0.9-8.2,1.8-12.3,2.7c4.1,0.9,8.2,1.8,12.3,2.7l11.8,4.7l0.2-0.1
						L706.4,1805.9z"/>
				</g>
				<g>
					<path d="M925.7,1805.9l-4.4-7.2l0.2-0.2l11.8,4.7c4.1,0.9,8.2,1.8,12.3,2.7c-4.1,0.9-8.2,1.8-12.3,2.7l-11.8,4.7l-0.2-0.1
						L925.7,1805.9z"/>
				</g>
			</g>
		</g>
		<g>
			<g>
				<line class="st6" x1="990.7" y1="1805.9" x2="1217.2" y2="1805.9"/>
				<g>
					<path d="M994.3,1805.9l4.4-7.2l-0.2-0.2l-11.8,4.7c-4.1,0.9-8.2,1.8-12.3,2.7c4.1,0.9,8.2,1.8,12.3,2.7l11.8,4.7l0.2-0.1
						L994.3,1805.9z"/>
				</g>
				<g>
					<path d="M1213.6,1805.9l-4.4-7.2l0.2-0.2l11.7,4.7c4.1,0.9,8.2,1.8,12.3,2.7c-4.1,0.9-8.2,1.8-12.3,2.7l-11.7,4.7l-0.2-0.1
						L1213.6,1805.9z"/>
				</g>
			</g>
		</g>
		<g>
			<g>
				<line class="st6" x1="486.9" y1="114.1" x2="1433.1" y2="114.1"/>
				<g>
					<path d="M490.5,114.1l4.4-7.2l-0.2-0.2l-11.8,4.7c-4.1,0.9-8.2,1.8-12.3,2.7c4.1,0.9,8.2,1.8,12.3,2.7l11.8,4.7l0.2-0.1
						L490.5,114.1z"/>
				</g>
				<g>
					<path d="M1429.5,114.1l-4.4-7.2l0.2-0.2l11.8,4.7c4.1,0.9,8.2,1.8,12.3,2.7c-4.1,0.9-8.2,1.8-12.3,2.7l-11.8,4.7l-0.2-0.1
						L1429.5,114.1z"/>
				</g>
			</g>
		</g>
		<g>
			<g>
				<path d="M966.3,210.9c2,1.1,3.6,2.9,4.9,5.5c1.3,2.6,1.9,6,1.9,10.2c0,4.3-0.6,7.9-1.7,11c-1.1,3-2.7,5.3-4.8,6.9
					s-4.6,2.4-7.4,2.4c-2.1,0-4-0.4-5.7-1.2c-1.7-0.8-3.1-2-4.1-3.4c-1.1-1.5-1.8-3.2-2.1-5.1h4.5c0.3,1.1,0.7,2.1,1.4,3
					s1.5,1.5,2.5,2c1,0.5,2.2,0.7,3.5,0.7c2,0,3.7-0.6,5.2-1.7c1.5-1.1,2.6-2.7,3.3-4.8c0.8-2.1,1.2-4.6,1.2-7.6h-0.5
					c-0.7,1-1.5,1.9-2.5,2.6c-1,0.7-2,1.3-3.2,1.7c-1.2,0.4-2.4,0.6-3.7,0.6c-2.2,0-4.2-0.5-6-1.6c-1.8-1-3.3-2.5-4.4-4.3
					c-1.1-1.8-1.6-3.9-1.6-6.2c0-2.3,0.5-4.4,1.6-6.2c1.1-1.9,2.6-3.4,4.5-4.5c1.9-1.1,4.2-1.6,6.7-1.6
					C962.1,209.3,964.3,209.9,966.3,210.9z M955.5,214.4c-1.3,0.7-2.3,1.7-3,3c-0.7,1.3-1.1,2.6-1.1,4.1s0.4,2.9,1.1,4.1
					s1.7,2.2,2.9,3c1.2,0.7,2.6,1.1,4.2,1.1c1.6,0,3-0.4,4.3-1.2s2.3-1.8,3.1-3.1c0.8-1.3,1.1-2.6,1.1-4c0-1.4-0.4-2.7-1.1-4
					c-0.7-1.2-1.7-2.3-3-3c-1.3-0.8-2.7-1.1-4.3-1.1C958.2,213.3,956.8,213.7,955.5,214.4z"/>
			</g>
		</g>
		<g>
			<g>
				<path d="M967.1,67.4v-0.3h-19.4v-4h24.1v4.3l-16.7,32.4h-4.8L967.1,67.4z"/>
			</g>
		</g>
		<line class="st6" x1="456.2" y1="42.1" x2="456.2" y2="1026.9"/>
		<line class="st6" x1="1463.8" y1="1026.9" x2="1463.8" y2="42.1"/>
		<line class="st6" x1="672.1" y1="1877.9" x2="672.1" y2="1026.9"/>
		<line class="st6" x1="960" y1="1877.9" x2="960" y2="1026.9"/>
		<line class="st6" x1="1247.9" y1="1877.9" x2="1247.9" y2="1026.9"/>
		<g>
			<line class="st6" x1="1237.7" y1="1016.7" x2="1258" y2="1037.1"/>
			<line class="st6" x1="1237.7" y1="1037.1" x2="1258" y2="1016.7"/>
		</g>
		<g>
			<line class="st6" x1="662" y1="1016.7" x2="682.3" y2="1037.1"/>
			<line class="st6" x1="662" y1="1037.1" x2="682.3" y2="1016.7"/>
		</g>
		<g>
			<line class="st6" x1="949.8" y1="1016.7" x2="970.2" y2="1037.1"/>
			<line class="st6" x1="949.8" y1="1037.1" x2="970.2" y2="1016.7"/>
		</g>
		<g>
			<g>
				<g>
					<path d="M804.3,1788.2l12.5-13.2c1.7-1.8,2.9-3.2,3.8-4.2c0.9-1.1,1.5-2.1,2-3.1c0.4-1,0.7-2.1,0.7-3.1c0-1.2-0.3-2.3-1-3.2
						c-0.6-0.9-1.5-1.7-2.6-2.2c-1.1-0.5-2.3-0.8-3.7-0.8c-1.4,0-2.7,0.3-3.7,0.9c-1.1,0.6-1.9,1.4-2.5,2.4c-0.6,1-0.9,2.2-0.9,3.6
						h-4.3c0-2.1,0.5-4,1.5-5.6c1-1.6,2.4-2.9,4.1-3.8c1.8-0.9,3.8-1.4,5.9-1.4c2.2,0,4.1,0.4,5.9,1.3c1.7,0.9,3.1,2.1,4,3.7
						c1,1.6,1.5,3.3,1.5,5.2c0,1.4-0.3,2.7-0.8,4c-0.5,1.3-1.3,2.7-2.5,4.2c-1.2,1.5-2.9,3.5-5.1,5.7l-8.4,8.7v0.3h17.5v4h-23.8
						L804.3,1788.2z"/>
				</g>
			</g>
		</g>
		<g>
			<g>
				<g>
					<path d="M1092.1,1788.2l12.5-13.2c1.7-1.8,2.9-3.2,3.8-4.2c0.9-1.1,1.5-2.1,2-3.1s0.7-2.1,0.7-3.1c0-1.2-0.3-2.3-1-3.2
						c-0.6-0.9-1.5-1.7-2.6-2.2c-1.1-0.5-2.3-0.8-3.7-0.8c-1.4,0-2.7,0.3-3.7,0.9c-1.1,0.6-1.9,1.4-2.5,2.4c-0.6,1-0.9,2.2-0.9,3.6
						h-4.3c0-2.1,0.5-4,1.5-5.6c1-1.6,2.4-2.9,4.1-3.8c1.8-0.9,3.8-1.4,5.9-1.4c2.2,0,4.1,0.4,5.9,1.3c1.7,0.9,3.1,2.1,4,3.7
						c1,1.6,1.5,3.3,1.5,5.2c0,1.4-0.3,2.7-0.8,4s-1.3,2.7-2.5,4.2c-1.2,1.5-2.9,3.5-5.1,5.7l-8.4,8.7v0.3h17.5v4h-23.8
						L1092.1,1788.2z"/>
				</g>
			</g>
		</g>
	</g>
</g>
</svg>
