<?xml version="1.0" encoding="UTF-8"?>
<svg xmlns="http://www.w3.org/2000/svg" version="1.1" viewBox="0 0 1920 1920">
  <defs>
    <style>
      .cls-1 {
        fill: #ffce00;
      }

      .cls-2 {
        fill: #3c70ba;
      }

      .cls-3 {
        fill: #fff;
      }

      .cls-4 {
        stroke-dasharray: 12 12;
      }

      .cls-4, .cls-5 {
        fill: none;
        stroke: #fff;
        stroke-miterlimit: 10;
      }

      .cls-5 {
        stroke-dasharray: 12 12;
      }

      .cls-6 {
        opacity: .2;
      }

      .cls-7 {
        fill: #bc3b3b;
      }
    </style>
  </defs>
  <!-- Generator: Adobe Illustrator 28.7.0, SVG Export Plug-In . SVG Version: 1.2.0 Build 136)  -->
  <g>
    <g id="_레이어_1" data-name="레이어_1">
      <g>
        <g>
          <g class="cls-6">
            <path d="M816.1,544h0c0,0,0,0,0,0q0,0-.2,0ZM816.2,1509.8h0c0,0,.2,0,.2,0,0,0-.1,0-.1,0Z"/>
            <path class="cls-2" d="M1319.8,1026.9c0,191.9-83.4,364.3-216,482.9,0,0,0,0,0,0h0c-43.1,38.5-91.4,71.4-143.7,97.4-45.2,22.5-93.5,39.8-143.9,51.3-46.3,10.5-94.5,16.1-143.9,16.1-357.7,0-647.7-290-647.7-647.7S314.5,379.3,672.2,379.3s97.6,5.5,143.9,16.1c-108.9,24.6-207.3,76.7-287.7,148.5-208.2,61.9-360.1,254.7-360.1,483s151.9,421.1,360.1,483c45.5,13.5,93.8,20.8,143.7,20.8s98.3-7.3,143.9-20.9c0,0,.2,0,.2,0h0c51.9-15.6,100.4-39.2,143.8-69.5,130.5-91,215.9-242.3,215.9-413.5s-85.3-322.4-215.8-413.5c43.4-30.3,91.9-53.9,143.8-69.4,132.6,118.6,216,291,216,482.9Z"/>
            <path d="M816.2,1509.8h0c0,0,.2,0,.2,0,0,0-.1,0-.1,0ZM1103.8,1509.8c0,0,0,0,0,0,0,0,.2,0,.2,0h0ZM1103.7,543.9h0c0,0,0,0,0,0,0,0,0,0-.2,0ZM816.1,544h0c0,0,0,0,0,0q0,0-.2,0Z"/>
            <path class="cls-7" d="M1607.7,1026.9c0,191.9-83.5,364.4-216.1,483-80.4,71.9-178.8,124-287.6,148.7h0c-46.3,10.5-94.4,16.1-143.9,16.1s-97.6-5.5-143.9-16.1c50.5-11.4,98.7-28.8,143.9-51.3,52.3-26,100.6-58.8,143.7-97.4h0c0,0,.2,0,.2,0,208.1-61.9,359.8-254.7,359.8-482.9s-151.8-421-359.9-482.9c45.6-13.6,93.9-20.9,143.9-20.9s98.1,7.3,143.7,20.8c132.7,118.6,216.2,291.1,216.2,483Z"/>
            <path class="cls-7" d="M1103.9,395.3c-50.5,11.4-98.7,28.8-143.9,51.3-52.3,26-100.6,58.8-143.7,97.4,0,0-.2,0-.2,0-208.1,61.8-359.9,254.6-359.9,482.8s151.7,421,359.8,482.9c-45.6,13.6-93.9,20.9-143.9,20.9s-98.1-7.3-143.7-20.8c-132.6-118.6-216.1-291-216.1-483s83.5-364.4,216.1-483c80.4-71.9,178.8-124,287.6-148.7,46.3-10.5,94.5-16.1,143.9-16.1,49.6.1,97.7,5.7,144,16.2Z"/>
            <path d="M816.2,1509.8h0c0,0,.2,0,.2,0,0,0-.1,0-.1,0ZM1103.8,1509.8c0,0,0,0,0,0,0,0,.2,0,.2,0h0ZM1103.7,543.9h0c0,0,0,0,0,0,0,0,0,0-.2,0ZM816.1,544h0c0,0,0,0,0,0q0,0-.2,0Z"/>
            <path d="M1103.8,1509.8c0,0,0,0,0,0,0,0,.2,0,.2,0h0ZM1103.7,543.9h0c0,0,0,0,0,0,0,0,0,0-.2,0Z"/>
            <path class="cls-1" d="M1895.6,1026.9c0,357.7-290,647.7-647.7,647.7s-97.6-5.5-143.9-16.1c108.8-24.7,207.2-76.8,287.6-148.7,208.2-61.9,360.1-254.7,360.1-483s-151.9-421.1-360.1-483c-45.5-13.5-93.8-20.8-143.7-20.8s-98.3,7.3-143.9,20.9c0,0-.2,0-.2,0h0c-51.9,15.6-100.4,39.2-143.8,69.5-130.5,91-215.9,242.3-215.9,413.5s85.4,322.4,215.9,413.5c-43.4,30.3-91.9,53.9-143.8,69.4-132.6-118.6-216-291-216-482.9s83.4-364.3,216-482.9c0,0,0,0,0,0,43.1-38.5,91.4-71.4,143.7-97.4,45.2-22.5,93.5-39.8,143.9-51.3h0c46.3-10.5,94.5-16.1,143.9-16.1,357.7.2,647.7,290.2,647.7,647.9Z"/>
          </g>
          <circle class="cls-4" cx="672.1" cy="1026.9" r="647.7"/>
          <circle class="cls-5" cx="672.1" cy="1026.9" r="503.8"/>
          <circle class="cls-4" cx="960" cy="1026.9" r="647.7"/>
          <circle class="cls-5" cx="960" cy="1026.9" r="503.8"/>
          <circle class="cls-4" cx="1247.9" cy="1026.9" r="647.7"/>
          <circle class="cls-5" cx="1247.9" cy="1026.9" r="503.8"/>
        </g>
        <g>
          <rect class="cls-3" x="311.8" y="188.9" width="1" height="838"/>
          <rect class="cls-3" x="1607.2" y="188.9" width="1" height="838"/>
          <g>
            <rect class="cls-3" x="343" y="260.3" width="1234" height="1"/>
            <path class="cls-3" d="M346.6,260.8l4.4-7.2-.2-.2-11.8,4.7c-4.1.9-8.2,1.8-12.3,2.7,4.1.9,8.2,1.8,12.3,2.7l11.8,4.7h.2c0-.1-4.4-7.4-4.4-7.4Z"/>
            <path class="cls-3" d="M1573.4,260.8l-4.4-7.2.2-.2,11.8,4.7c4.1.9,8.2,1.8,12.3,2.7-4.1.9-8.2,1.8-12.3,2.7l-11.8,4.7h-.2c0-.1,4.4-7.4,4.4-7.4Z"/>
          </g>
          <g>
            <rect class="cls-3" x="702.8" y="1805.4" width="226.5" height="1"/>
            <path class="cls-3" d="M706.4,1805.9l4.4-7.2-.2-.2-11.8,4.7c-4.1.9-8.2,1.8-12.3,2.7,4.1.9,8.2,1.8,12.3,2.7l11.8,4.7h.2c0,0-4.4-7.4-4.4-7.4Z"/>
            <path class="cls-3" d="M925.7,1805.9l-4.4-7.2.2-.2,11.8,4.7c4.1.9,8.2,1.8,12.3,2.7-4.1.9-8.2,1.8-12.3,2.7l-11.8,4.7h-.2c0,0,4.4-7.4,4.4-7.4Z"/>
          </g>
          <g>
            <rect class="cls-3" x="990.7" y="1805.4" width="226.5" height="1"/>
            <path class="cls-3" d="M994.3,1805.9l4.4-7.2-.2-.2-11.8,4.7c-4.1.9-8.2,1.8-12.3,2.7,4.1.9,8.2,1.8,12.3,2.7l11.8,4.7h.2c0,0-4.4-7.4-4.4-7.4Z"/>
            <path class="cls-3" d="M1213.6,1805.9l-4.4-7.2.2-.2,11.7,4.7c4.1.9,8.2,1.8,12.3,2.7-4.1.9-8.2,1.8-12.3,2.7l-11.7,4.7h-.2c0,0,4.4-7.4,4.4-7.4Z"/>
          </g>
          <g>
            <rect class="cls-3" x="486.9" y="113.6" width="946.2" height="1"/>
            <path class="cls-3" d="M490.5,114.1l4.4-7.2-.2-.2-11.8,4.7c-4.1.9-8.2,1.8-12.3,2.7,4.1.9,8.2,1.8,12.3,2.7l11.8,4.7h.2c0,0-4.4-7.4-4.4-7.4Z"/>
            <path class="cls-3" d="M1429.5,114.1l-4.4-7.2.2-.2,11.8,4.7c4.1.9,8.2,1.8,12.3,2.7-4.1.9-8.2,1.8-12.3,2.7l-11.8,4.7h-.2c0,0,4.4-7.4,4.4-7.4Z"/>
          </g>
          <path class="cls-3" d="M966.3,210.9c2,1.1,3.6,2.9,4.9,5.5,1.3,2.6,1.9,6,1.9,10.2s-.6,7.9-1.7,11c-1.1,3-2.7,5.3-4.8,6.9s-4.6,2.4-7.4,2.4-4-.4-5.7-1.2-3.1-2-4.1-3.4c-1.1-1.5-1.8-3.2-2.1-5.1h4.5c.3,1.1.7,2.1,1.4,3s1.5,1.5,2.5,2,2.2.7,3.5.7c2,0,3.7-.6,5.2-1.7,1.5-1.1,2.6-2.7,3.3-4.8.8-2.1,1.2-4.6,1.2-7.6h-.5c-.7,1-1.5,1.9-2.5,2.6-1,.7-2,1.3-3.2,1.7s-2.4.6-3.7.6c-2.2,0-4.2-.5-6-1.6-1.8-1-3.3-2.5-4.4-4.3-1.1-1.8-1.6-3.9-1.6-6.2s.5-4.4,1.6-6.2c1.1-1.9,2.6-3.4,4.5-4.5s4.2-1.6,6.7-1.6c2.3,0,4.5.6,6.5,1.6ZM955.5,214.4c-1.3.7-2.3,1.7-3,3s-1.1,2.6-1.1,4.1.4,2.9,1.1,4.1,1.7,2.2,2.9,3c1.2.7,2.6,1.1,4.2,1.1s3-.4,4.3-1.2,2.3-1.8,3.1-3.1,1.1-2.6,1.1-4-.4-2.7-1.1-4c-.7-1.2-1.7-2.3-3-3-1.3-.8-2.7-1.1-4.3-1.1s-2.9.4-4.2,1.1Z"/>
          <path class="cls-3" d="M967.1,67.4v-.3h-19.4v-4h24.1v4.3l-16.7,32.4h-4.8l16.8-32.4Z"/>
          <rect class="cls-3" x="455.7" y="42.1" width="1" height="984.8"/>
          <rect class="cls-3" x="1463.3" y="42.1" width="1" height="984.8"/>
          <rect class="cls-3" x="671.6" y="1026.9" width="1" height="851"/>
          <rect class="cls-3" x="959.5" y="1026.9" width="1" height="851"/>
          <rect class="cls-3" x="1247.4" y="1026.9" width="1" height="851"/>
          <g>
            <rect class="cls-3" x="1247.4" y="1012.5" width="1" height="28.8" transform="translate(-361 1179.2) rotate(-44.9)"/>
            <rect class="cls-3" x="1233.5" y="1026.4" width="28.8" height="1" transform="translate(-360.2 1187.6) rotate(-45.2)"/>
          </g>
          <g>
            <rect class="cls-3" x="671.6" y="1012.5" width="1" height="28.8" transform="translate(-528.6 773.1) rotate(-44.9)"/>
            <rect class="cls-3" x="657.8" y="1026.4" width="28.8" height="1" transform="translate(-529.9 779.4) rotate(-45.2)"/>
          </g>
          <g>
            <rect class="cls-3" x="959.5" y="1012.5" width="1" height="28.8" transform="translate(-445 979.6) rotate(-45)"/>
            <rect class="cls-3" x="945.6" y="1026.4" width="28.8" height="1" transform="translate(-445 979.6) rotate(-45)"/>
          </g>
          <path class="cls-3" d="M804.3,1788.2l12.5-13.2c1.7-1.8,2.9-3.2,3.8-4.2.9-1.1,1.5-2.1,2-3.1.4-1,.7-2.1.7-3.1s-.3-2.3-1-3.2c-.6-.9-1.5-1.7-2.6-2.2s-2.3-.8-3.7-.8-2.7.3-3.7.9c-1.1.6-1.9,1.4-2.5,2.4s-.9,2.2-.9,3.6h-4.3c0-2.1.5-4,1.5-5.6s2.4-2.9,4.1-3.8c1.8-.9,3.8-1.4,5.9-1.4s4.1.4,5.9,1.3c1.7.9,3.1,2.1,4,3.7,1,1.6,1.5,3.3,1.5,5.2s-.3,2.7-.8,4-1.3,2.7-2.5,4.2-2.9,3.5-5.1,5.7l-8.4,8.7v.3h17.5v4h-23.8v-3.4Z"/>
          <path class="cls-3" d="M1092.1,1788.2l12.5-13.2c1.7-1.8,2.9-3.2,3.8-4.2.9-1.1,1.5-2.1,2-3.1s.7-2.1.7-3.1-.3-2.3-1-3.2c-.6-.9-1.5-1.7-2.6-2.2s-2.3-.8-3.7-.8-2.7.3-3.7.9c-1.1.6-1.9,1.4-2.5,2.4s-.9,2.2-.9,3.6h-4.3c0-2.1.5-4,1.5-5.6s2.4-2.9,4.1-3.8c1.8-.9,3.8-1.4,5.9-1.4s4.1.4,5.9,1.3c1.7.9,3.1,2.1,4,3.7,1,1.6,1.5,3.3,1.5,5.2s-.3,2.7-.8,4-1.3,2.7-2.5,4.2-2.9,3.5-5.1,5.7l-8.4,8.7v.3h17.5v4h-23.8v-3.4Z"/>
        </g>
      </g>
    </g>
  </g>
</svg>