<?xml version="1.0" encoding="utf-8"?>
<!-- Generator: Adobe Illustrator 28.1.0, SVG Export Plug-In . SVG Version: 6.00 Build 0)  -->
<svg version="1.1" id="레이어_1" xmlns="http://www.w3.org/2000/svg" xmlns:xlink="http://www.w3.org/1999/xlink" x="0px"
	 y="0px" viewBox="0 0 128 128" style="enable-background:new 0 0 128 128;" xml:space="preserve">
<style type="text/css">
	.st0{fill:#FFCE00;}
	.st1{fill:#3C70BA;}
	.st2{fill:#BC3B3B;}
</style>
<g>
	<g>
		<path class="st0" d="M83.7,108.3c-24.4,0-44.3-19.9-44.3-44.3c0-2.7,2.2-4.9,4.9-4.9s4.9,2.2,4.9,4.9c0,19,15.5,34.5,34.5,34.5
			S118.2,83,118.2,64c0-2.7,2.2-4.9,4.9-4.9s4.9,2.2,4.9,4.9C128,88.4,108.1,108.3,83.7,108.3z"/>
	</g>
	<g>
		<path class="st1" d="M83.7,68.9c-2.7,0-4.9-2.2-4.9-4.9c0-19-15.5-34.5-34.5-34.5S9.8,45,9.8,64c0,2.7-2.2,4.9-4.9,4.9
			S0,66.7,0,64c0-24.4,19.9-44.3,44.3-44.3S88.6,39.6,88.6,64C88.6,66.7,86.4,68.9,83.7,68.9z"/>
	</g>
	<g>
		<path class="st2" d="M103.4,68.9c-2.7,0-4.9-2.2-4.9-4.9C98.5,45,83,29.5,64,29.5S29.5,45,29.5,64c0,2.7-2.2,4.9-4.9,4.9
			s-4.9-2.2-4.9-4.9c0-24.4,19.9-44.3,44.3-44.3c24.4,0,44.3,19.9,44.3,44.3C108.3,66.7,106.1,68.9,103.4,68.9z"/>
	</g>
	<g>
		<path class="st0" d="M123.1,68.9c-2.7,0-4.9-2.2-4.9-4.9c0-19-15.5-34.5-34.5-34.5S49.2,45,49.2,64c0,2.7-2.2,4.9-4.9,4.9
			s-4.9-2.2-4.9-4.9c0-24.4,19.9-44.3,44.3-44.3c24.4,0,44.3,19.9,44.3,44.3C128,66.7,125.8,68.9,123.1,68.9z"/>
	</g>
	<g>
		<path class="st2" d="M64,108.3c-24.4,0-44.3-19.9-44.3-44.3c0-2.7,2.2-4.9,4.9-4.9s4.9,2.2,4.9,4.9C29.5,83,45,98.5,64,98.5
			S98.5,83,98.5,64c0-2.7,2.2-4.9,4.9-4.9s4.9,2.2,4.9,4.9C108.3,88.4,88.4,108.3,64,108.3z"/>
	</g>
	<g>
		<path class="st1" d="M44.3,108.3C19.9,108.3,0,88.4,0,64c0-2.7,2.2-4.9,4.9-4.9s4.9,2.2,4.9,4.9c0,19,15.5,34.5,34.5,34.5
			S78.8,83,78.8,64c0-2.7,2.2-4.9,4.9-4.9s4.9,2.2,4.9,4.9C88.6,88.4,68.7,108.3,44.3,108.3z"/>
	</g>
</g>
</svg>
