<?xml version="1.0" encoding="UTF-8"?>
<svg xmlns="http://www.w3.org/2000/svg" version="1.1" viewBox="0 0 128 128">
  <defs>
    <style>
      .cls-1 {
        fill: #ffce00;
      }

      .cls-2 {
        fill: #3c70ba;
      }

      .cls-3 {
        fill: #bc3b3b;
      }
    </style>
  </defs>
  <!-- Generator: Adobe Illustrator 28.7.0, SVG Export Plug-In . SVG Version: 1.2.0 Build 136)  -->
  <g>
    <g id="_레이어_1" data-name="레이어_1">
      <g id="_레이어_1-2" data-name="_레이어_1">
        <g id="_레이어_1-2">
          <g>
            <path class="cls-2" d="M43.8,107.8C19.6,107.8,0,88.1,0,64S19.6,20.2,43.8,20.2s43.8,19.6,43.8,43.8-19.6,43.8-43.8,43.8ZM43.8,29.3c-19,0-34.7,15.5-34.7,34.7s15.5,34.7,34.7,34.7,34.7-15.5,34.7-34.7-15.5-34.7-34.7-34.7Z"/>
            <path class="cls-3" d="M64,107.8c-24.1,0-43.8-19.6-43.8-43.8s19.6-43.8,43.8-43.8,43.6,19.6,43.6,43.8-19.6,43.8-43.6,43.8ZM64,29.3c-19,0-34.7,15.5-34.7,34.7s15.5,34.7,34.7,34.7,34.5-15.5,34.5-34.7-15.5-34.7-34.5-34.7Z"/>
            <path class="cls-1" d="M84.2,107.8c-24.1,0-43.6-19.6-43.6-43.8s19.6-43.8,43.6-43.8,43.8,19.6,43.8,43.8-19.6,43.8-43.8,43.8ZM84.2,29.3c-19,0-34.5,15.5-34.5,34.7s15.5,34.7,34.5,34.7,34.7-15.5,34.7-34.7-15.5-34.7-34.7-34.7Z"/>
          </g>
        </g>
      </g>
    </g>
  </g>
</svg>