<?xml version="1.0" encoding="UTF-8"?>
<svg xmlns="http://www.w3.org/2000/svg" version="1.1" viewBox="0 0 128 128">
  <defs>
    <style>
      .cls-1 {
        fill: #ffce00;
      }

      .cls-2 {
        fill: #3c70ba;
      }

      .cls-3 {
        fill: #bc3b3b;
      }
    </style>
  </defs>
  <!-- Generator: Adobe Illustrator 28.7.0, SVG Export Plug-In . SVG Version: 1.2.0 Build 136)  -->
  <g>
    <g id="_레이어_1" data-name="레이어_1">
      <g id="_레이어_1-2" data-name="_레이어_1">
        <g>
          <path class="cls-2" d="M47.3,100.1c-19.9,0-36.1-16.2-36.1-36.1S27.4,27.9,47.3,27.9s36.1,16.2,36.1,36.1-16.2,36.1-36.1,36.1ZM47.3,35.4c-15.7,0-28.6,12.8-28.6,28.6s12.8,28.6,28.6,28.6,28.6-12.8,28.6-28.6-12.8-28.6-28.6-28.6Z"/>
          <path class="cls-3" d="M64,100.1c-19.9,0-36.1-16.2-36.1-36.1s16.2-36.1,36.1-36.1,36,16.2,36,36.1-16.2,36.1-36,36.1ZM64,35.4c-15.7,0-28.6,12.8-28.6,28.6s12.8,28.6,28.6,28.6,28.5-12.8,28.5-28.6-12.8-28.6-28.5-28.6Z"/>
          <path class="cls-1" d="M80.7,100.1c-19.9,0-36-16.2-36-36.1s16.2-36.1,36-36.1,36.1,16.2,36.1,36.1-16.2,36.1-36.1,36.1ZM80.7,35.4c-15.7,0-28.5,12.8-28.5,28.6s12.8,28.6,28.5,28.6,28.6-12.8,28.6-28.6-12.8-28.6-28.6-28.6Z"/>
        </g>
      </g>
    </g>
  </g>
</svg>