<?xml version="1.0" encoding="utf-8"?>
<!-- Generator: Adobe Illustrator 28.1.0, SVG Export Plug-In . SVG Version: 6.00 Build 0)  -->
<svg version="1.1" id="레이어_1" xmlns="http://www.w3.org/2000/svg" xmlns:xlink="http://www.w3.org/1999/xlink" x="0px"
	 y="0px" viewBox="0 0 512 121.6" style="enable-background:new 0 0 512 121.6;" xml:space="preserve">
<style type="text/css">
	.st0{fill:#FFFFFF;}
	.st1{fill:#3C70BA;}
	.st2{fill:#1F9935;}
	.st3{fill:#FFCE00;}
	.st4{fill:#BC3B3B;}
</style>
<g>
	<g>
		<path class="st0" d="M122.7,34l2.3,51.6h-7.7L117,60.4v-1.2c0-1,0-1.9,0.1-2.9c0-0.9,0.1-1.9,0.2-2.8c-0.3,0.9-0.7,1.8-1.2,2.8
			c-0.5,0.9-1.2,2.1-2.2,3.6L96,87.6L85.7,60c-0.2-0.6-0.5-1.4-0.8-2.4c-0.3-1-0.7-2.3-1.2-4c-0.1,1.4-0.6,3.6-1.4,6.6l0,0.1
			l-7.4,25.3H67L83.2,34l12,32c0.6,1.6,1.1,2.9,1.5,4.1c0.4,1.1,0.7,2.3,1,3.4c0.6-1.3,1.2-2.6,1.9-3.8c0.7-1.3,1.4-2.5,2.2-3.8
			L122.7,34 M122.7,29c-1.7,0-3.2,0.8-4.2,2.3L98.8,61.4L87.9,32.3c-0.7-2-2.6-3.2-4.7-3.2c0,0-0.1,0-0.1,0c-2.1,0.1-4,1.5-4.6,3.5
			L62.2,84.1c-0.5,1.5-0.2,3.2,0.7,4.5c0.9,1.3,2.4,2,4,2h7.9c2.2,0,4.2-1.5,4.8-3.6l4.8-16.2l6.9,18.5c0.7,1.8,2.3,3,4.1,3.2
			c0.2,0,0.4,0,0.5,0c1.7,0,3.3-0.9,4.2-2.3l11.9-18.5l0.2,13.9c0,2.7,2.3,4.9,5,4.9h7.7c1.4,0,2.7-0.6,3.6-1.5
			c0.9-1,1.4-2.3,1.4-3.7l-2.3-51.6c-0.1-2.2-1.6-4-3.7-4.6C123.6,29.1,123.2,29,122.7,29L122.7,29z"/>
	</g>
	<g>
		<path class="st0" d="M154.3,34.2l18.1,51.4h-8l-4-11.7h-19.7l-6.5,11.7h-8.4L154.3,34.2 M143.7,67.3h14.5l-3.8-12.2
			c-0.2-0.6-0.4-1.4-0.6-2.3c-0.2-1-0.5-2.2-0.7-3.8c-0.5,1.2-1,2.3-1.5,3.3c-0.5,1-1,2-1.4,3L143.7,67.3 M154.3,29.2
			c-1.8,0-3.5,1-4.4,2.6l-28.7,51.4c-0.9,1.5-0.8,3.4,0.1,5c0.9,1.5,2.5,2.5,4.3,2.5h8.4c1.8,0,3.5-1,4.4-2.6l5.1-9.1h13.2l2.9,8.3
			c0.7,2,2.6,3.4,4.7,3.4h8c1.6,0,3.1-0.8,4.1-2.1c0.9-1.3,1.2-3,0.6-4.5L159,32.5c-0.7-1.9-2.3-3.2-4.3-3.3
			C154.5,29.2,154.4,29.2,154.3,29.2L154.3,29.2z"/>
	</g>
	<g>
		<path class="st0" d="M189.2,36.1c3.9,0,6.8,0.2,8.5,0.7c1.7,0.5,3.3,1.2,4.6,2.3c1.5,1.2,2.7,2.6,3.5,4.4c0.8,1.8,1.2,3.7,1.2,5.8
			c0,4.1-1.1,7.4-3.3,10c-2.2,2.6-5.4,4.2-9.5,4.8l13.7,21.5h-8.7l-13.1-21.2h-1.8l-2.8,21.2h-7.7l6.5-49.5H189.2 M185,58.1h1.6
			c4.9,0,8.2-0.6,9.9-1.8s2.6-3.3,2.6-6.3c0-2.5-0.7-4.3-2.2-5.3c-1.5-1-4.4-1.5-8.6-1.5H187L185,58.1 M189.2,31.1h-8.9
			c-2.5,0-4.6,1.9-5,4.3l-6.5,49.5c-0.2,1.4,0.2,2.9,1.2,3.9c0.9,1.1,2.3,1.7,3.8,1.7h7.7c2.5,0,4.6-1.9,5-4.3l1.3-9.7l7.2,11.7
			c0.9,1.5,2.5,2.4,4.3,2.4h8.7c1.8,0,3.5-1,4.4-2.6s0.8-3.6-0.2-5.1l-10.2-16c2.1-1.1,4-2.5,5.5-4.3c3-3.5,4.6-7.9,4.6-13.2
			c0-2.8-0.6-5.5-1.6-7.9c-1.1-2.5-2.8-4.6-4.9-6.2c-1.9-1.5-4.1-2.6-6.5-3.2C196.7,31.4,193.6,31.1,189.2,31.1L189.2,31.1z
			 M190.8,52.9l0.6-4.6c1.6,0.1,2.3,0.4,2.6,0.5c0.1,0.2,0.1,0.5,0.1,1.2c0,1.3-0.2,2-0.5,2.2C193.6,52.2,193,52.6,190.8,52.9
			L190.8,52.9z"/>
	</g>
	<g>
		<path class="st0" d="M251.6,36.1l-29.3,51.4l-14.8-51.4h7.7l7.9,29.5c0.4,1.5,0.7,2.7,0.9,3.7s0.4,1.8,0.5,2.5
			c0.5-1.3,1-2.4,1.5-3.5c0.5-1,1-2,1.4-2.8l15.8-29.4H251.6 M251.6,31.1h-8.3c-1.8,0-3.5,1-4.4,2.6l-12.8,23.7l-6-22.6
			c-0.6-2.2-2.6-3.7-4.8-3.7h-7.7c-1.6,0-3.1,0.7-4,2c-0.9,1.3-1.2,2.9-0.8,4.4l14.8,51.4c0.6,1.9,2.2,3.3,4.2,3.6
			c0.2,0,0.4,0,0.6,0c1.8,0,3.4-1,4.3-2.5l29.3-51.4c0.9-1.5,0.9-3.4,0-5C255,32.1,253.4,31.1,251.6,31.1L251.6,31.1z"/>
	</g>
	<g>
		<path class="st0" d="M281.7,36.1l-0.9,7h-20.1l-1.6,12.4h20l-0.9,6.9h-20.1l-2.1,16h20.1l-1,7.1h-27.8l6.5-49.5H281.7 M281.7,31.1
			H254c-2.5,0-4.6,1.9-5,4.3l-6.5,49.5c-0.2,1.4,0.2,2.9,1.2,3.9c0.9,1.1,2.3,1.7,3.8,1.7h27.8c2.5,0,4.6-1.8,5-4.3l1-7.1
			c0.2-1.4-0.2-2.9-1.2-4s-2.3-1.7-3.8-1.7h-14.4l0.8-6h15.7c2.5,0,4.6-1.9,5-4.3l0.9-6.9c0.2-1.4-0.2-2.9-1.2-3.9
			c-0.9-1.1-2.3-1.7-3.8-1.7h-14.3l0.3-2.4h15.7c2.5,0,4.6-1.9,5-4.4l0.9-7c0.2-1.4-0.3-2.9-1.2-3.9
			C284.5,31.7,283.2,31.1,281.7,31.1L281.7,31.1z"/>
	</g>
	<g>
		<path class="st0" d="M296.1,36.1L290.6,78h18.5l-1,7.6h-26.2l6.5-49.5H296.1 M296.1,31.1h-7.8c-2.5,0-4.6,1.9-5,4.3l-6.5,49.5
			c-0.2,1.4,0.2,2.9,1.2,3.9c0.9,1.1,2.3,1.7,3.8,1.7h26.2c2.5,0,4.6-1.8,5-4.3l1-7.6c0.2-1.4-0.2-2.9-1.2-4s-2.3-1.7-3.8-1.7h-12.8
			l4.7-36.2c0.2-1.4-0.3-2.9-1.2-3.9C298.9,31.8,297.5,31.1,296.1,31.1L296.1,31.1z"/>
	</g>
	<g>
		<path class="st0" d="M337.5,35c7.5,0,13.5,2.2,18,6.6c4.5,4.4,6.7,10.2,6.7,17.6c0,3.9-0.7,7.7-2.2,11.1c-1.5,3.5-3.5,6.5-6.2,9.1
			c-2.6,2.4-5.6,4.3-9,5.6c-3.4,1.3-7,1.9-10.9,1.9c-7.2,0-13-2.2-17.4-6.6c-4.4-4.4-6.6-10.2-6.6-17.4c0-4,0.7-7.8,2.1-11.3
			c1.4-3.5,3.5-6.5,6.1-9.1c2.5-2.4,5.5-4.3,8.8-5.6C330.3,35.6,333.9,35,337.5,35 M334.5,79.9c5.6,0,10.4-2,14.2-5.9
			s5.7-8.9,5.7-14.7c0-5.2-1.6-9.4-4.7-12.6c-3.2-3.2-7.3-4.8-12.5-4.8c-2.6,0-5,0.5-7.3,1.5c-2.3,1-4.3,2.4-6.1,4.2
			c-2,2-3.5,4.3-4.5,6.9c-1,2.6-1.6,5.3-1.6,8.1c0,5.2,1.6,9.3,4.7,12.6C325.4,78.3,329.5,79.9,334.5,79.9 M337.5,30
			c-4.3,0-8.4,0.8-12.3,2.3c-4,1.5-7.5,3.8-10.5,6.6c-3.2,3-5.6,6.7-7.3,10.8c-1.7,4.1-2.5,8.5-2.5,13.1c0,8.5,2.7,15.6,8.1,20.9
			c5.4,5.4,12.4,8.1,20.9,8.1c4.4,0,8.7-0.8,12.7-2.3c4-1.5,7.6-3.7,10.6-6.6c3.2-3.1,5.7-6.7,7.4-10.8c1.7-4.1,2.6-8.5,2.6-13.1
			c0-8.7-2.8-15.8-8.2-21.2C353.6,32.6,346.4,30,337.5,30L337.5,30z M334.5,74.9c-3.6,0-6.4-1.1-8.6-3.3c-2.2-2.3-3.3-5.2-3.3-9.1
			c0-2.2,0.4-4.3,1.2-6.3c0.8-2,1.9-3.7,3.5-5.3c0,0,0,0,0.1-0.1c1.2-1.3,2.7-2.3,4.4-3c1.7-0.7,3.5-1.1,5.4-1.1
			c3.8,0,6.8,1.1,9,3.3c2.2,2.2,3.3,5.2,3.3,9.1c0,4.6-1.4,8.3-4.3,11.3C342.2,73.5,338.8,74.9,334.5,74.9L334.5,74.9z"/>
	</g>
	<g>
		<path class="st0" d="M410.4,36.1l-3.6,27.8c-0.6,4.7-1.3,8.2-2.1,10.3s-1.8,4-3.1,5.6c-1.9,2.4-4.4,4.2-7.4,5.4
			c-3,1.2-6.5,1.8-10.4,1.8c-5.6,0-9.9-1.4-12.9-4.2c-3-2.8-4.4-6.8-4.4-12.1c0-1.2,0.1-2.8,0.3-4.9c0.2-2.1,0.5-4.4,0.8-7l3-22.6
			h7.8l-3.8,28.7c-0.2,1.1-0.3,2-0.3,2.9s-0.1,1.6-0.1,2.3c0,3.2,0.9,5.6,2.7,7.2c1.8,1.7,4.4,2.5,7.8,2.5c2.5,0,4.6-0.4,6.4-1.2
			c1.8-0.8,3.3-2.1,4.6-3.8c1.6-2.2,2.8-6.2,3.5-12c0.1-0.7,0.2-1.1,0.2-1.5l3.3-25.2H410.4 M410.4,31.1h-7.7c-2.5,0-4.6,1.9-5,4.3
			l-3.3,25.1c0,0.3-0.1,0.8-0.2,1.4c0,0,0,0,0,0.1c-0.8,6.6-2.1,8.9-2.6,9.6c-0.8,1-1.6,1.8-2.7,2.3c-1.1,0.5-2.6,0.8-4.3,0.8
			c-2.1,0-3.5-0.4-4.4-1.2c-0.3-0.3-1.1-1-1.1-3.6c0-0.5,0-1.2,0.1-1.9c0.1-0.8,0.2-1.6,0.3-2.5c0,0,0-0.1,0-0.1l3.8-28.7
			c0.2-1.4-0.2-2.9-1.2-3.9c-0.9-1.1-2.3-1.7-3.8-1.7h-7.8c-2.5,0-4.6,1.9-5,4.3l-3,22.6c-0.4,2.6-0.7,5.1-0.8,7.2
			c-0.2,2.3-0.3,4-0.3,5.4c0,6.7,2,12,6,15.8c3.9,3.7,9.4,5.6,16.3,5.6c4.5,0,8.7-0.7,12.3-2.2c3.8-1.5,7-3.8,9.4-6.8
			c1.7-2,3-4.4,4-7.1c0.9-2.5,1.6-6.2,2.3-11.3l3.6-27.8c0.2-1.4-0.2-2.9-1.2-3.9C413.2,31.8,411.9,31.1,410.4,31.1L410.4,31.1z"/>
	</g>
	<g>
		<path class="st0" d="M429.6,35c3,0,5.7,0.6,8,1.9c2.3,1.2,4.2,3.1,5.7,5.5l-4.7,4.4c-1.1-1.8-2.3-3.1-3.7-4s-2.9-1.3-4.5-1.3
			c-2.4,0-4.4,0.7-5.9,2.1c-1.5,1.4-2.3,3.3-2.3,5.5c0,2.7,2.2,5.2,6.5,7.6c1.1,0.6,1.9,1,2.5,1.4c3.3,1.9,5.7,3.9,7.1,6
			c1.4,2.1,2.1,4.6,2.1,7.7c0,4.7-1.5,8.4-4.5,11.2c-3,2.8-7.1,4.1-12.3,4.1c-3.5,0-6.5-0.8-9-2.4c-2.5-1.6-4.5-4.1-6-7.4l5.4-4.5
			c1.4,2.7,2.8,4.7,4.4,5.9c1.6,1.2,3.4,1.8,5.5,1.8c2.6,0,4.7-0.8,6.4-2.3c1.6-1.5,2.4-3.5,2.4-6c0-1.7-0.4-3.2-1.3-4.4
			c-0.9-1.2-2.4-2.4-4.5-3.7c-0.5-0.3-1.1-0.7-2-1.1c-3.7-2-6.2-3.8-7.5-5.2c-0.9-1-1.6-2.2-2.1-3.5c-0.5-1.3-0.7-2.8-0.7-4.3
			c0-4.3,1.4-7.9,4.2-10.6S425.1,35,429.6,35 M429.6,30c-5.8,0-10.7,1.9-14.4,5.5c-3.8,3.7-5.7,8.5-5.7,14.2c0,2.1,0.3,4.1,1,6
			c0.7,2,1.7,3.7,3.1,5.2c1.7,1.9,4.5,3.8,8.7,6.2c0.8,0.4,1.4,0.8,1.8,1.1c0,0,0,0,0.1,0c2.1,1.3,2.8,2.1,3,2.3
			c0.1,0.1,0.4,0.5,0.4,1.5c0,1.3-0.4,1.9-0.9,2.3c-0.4,0.4-1.2,0.9-2.9,0.9c-1,0-1.7-0.2-2.4-0.8c-0.7-0.5-1.7-1.6-2.9-4.1
			c-0.7-1.4-1.9-2.3-3.4-2.7c-0.3-0.1-0.7-0.1-1-0.1c-1.2,0-2.3,0.4-3.2,1.1l-5.4,4.5c-1.7,1.4-2.3,3.9-1.4,5.9
			c1.9,4.2,4.5,7.4,7.8,9.5c3.3,2.2,7.2,3.2,11.7,3.2c6.4,0,11.7-1.8,15.7-5.4c4.1-3.7,6.2-8.7,6.2-14.9c0-4-1-7.5-2.9-10.4
			c-1.8-2.7-4.7-5.2-8.7-7.6c-0.6-0.4-1.5-0.9-2.7-1.5c-3.5-1.9-3.9-3.1-3.9-3.1c0-1.1,0.4-1.6,0.7-1.9c0.4-0.3,1-0.8,2.5-0.8
			c0.7,0,1.3,0.2,1.8,0.5c0.7,0.5,1.4,1.3,2.1,2.4c0.8,1.3,2.1,2.1,3.6,2.3c0.2,0,0.5,0,0.7,0c1.2,0,2.5-0.5,3.4-1.3l4.7-4.4
			c1.7-1.6,2.1-4.2,0.9-6.3c-1.9-3.2-4.5-5.7-7.6-7.3C436.9,30.8,433.4,30,429.6,30L429.6,30z"/>
	</g>
</g>
<g>
	<g>
		<path class="st1" d="M117,60.4v-1.2c0-1,0-1.9,0.1-2.9c0-0.9,0.1-1.9,0.2-2.8c-0.3,0.9-0.7,1.8-1.2,2.8c-0.5,0.9-1.2,2.1-2.2,3.6
			L96,87.6L85.7,60c-0.2-0.6-0.5-1.4-0.8-2.4c-0.3-1-0.7-2.3-1.2-4c-0.1,1.4-0.6,3.6-1.4,6.6l0,0.1l-7.4,25.3H67L83.2,34l12,32
			c0.6,1.6,1.1,2.9,1.5,4.1c0.4,1.1,0.7,2.3,1,3.4c0.6-1.3,1.2-2.6,1.9-3.8c0.7-1.3,1.4-2.5,2.2-3.8L122.7,34l2.3,51.6h-7.7
			L117,60.4z"/>
	</g>
	<g>
		<path class="st1" d="M125.6,85.6l28.7-51.4l18.1,51.4h-8l-4-11.7h-19.7l-6.5,11.7H125.6z M143.7,67.3h14.5l-3.8-12.2
			c-0.2-0.6-0.4-1.4-0.6-2.3c-0.2-1-0.5-2.2-0.7-3.8c-0.5,1.2-1,2.3-1.5,3.3c-0.5,1-1,2-1.4,3L143.7,67.3z"/>
	</g>
	<g>
		<path class="st1" d="M181.4,85.6h-7.7l6.5-49.5h8.9c3.9,0,6.8,0.2,8.5,0.7c1.7,0.5,3.3,1.2,4.6,2.3c1.5,1.2,2.7,2.6,3.5,4.4
			c0.8,1.8,1.2,3.7,1.2,5.8c0,4.1-1.1,7.4-3.3,10c-2.2,2.6-5.4,4.2-9.5,4.8l13.7,21.5h-8.7l-13.1-21.2h-1.8L181.4,85.6z M185,58.1
			h1.6c4.9,0,8.2-0.6,9.9-1.8s2.6-3.3,2.6-6.3c0-2.5-0.7-4.3-2.2-5.3c-1.5-1-4.4-1.5-8.6-1.5H187L185,58.1z"/>
	</g>
	<g>
		<path class="st1" d="M207.5,36.1h7.7l7.9,29.5c0.4,1.5,0.7,2.7,0.9,3.7s0.4,1.8,0.5,2.5c0.5-1.3,1-2.4,1.5-3.5c0.5-1,1-2,1.4-2.8
			l15.8-29.4h8.3l-29.3,51.4L207.5,36.1z"/>
	</g>
	<g>
		<path class="st1" d="M247.5,85.6l6.5-49.5h27.8l-0.9,7h-20.1l-1.6,12.4h20l-0.9,6.9h-20.1l-2.1,16h20.1l-1,7.1H247.5z"/>
	</g>
	<g>
		<path class="st1" d="M281.8,85.6l6.5-49.5h7.8L290.6,78h18.5l-1,7.6H281.8z"/>
	</g>
	<g>
		<path class="st1" d="M337.5,35c7.5,0,13.5,2.2,18,6.6c4.5,4.4,6.7,10.2,6.7,17.6c0,3.9-0.7,7.7-2.2,11.1c-1.5,3.5-3.5,6.5-6.2,9.1
			c-2.6,2.4-5.6,4.3-9,5.6c-3.4,1.3-7,1.9-10.9,1.9c-7.2,0-13-2.2-17.4-6.6c-4.4-4.4-6.6-10.2-6.6-17.4c0-4,0.7-7.8,2.1-11.3
			s3.5-6.5,6.1-9.1c2.5-2.4,5.5-4.3,8.8-5.6C330.3,35.6,333.9,35,337.5,35z M354.4,59.2c0-5.2-1.6-9.4-4.7-12.6
			c-3.2-3.2-7.3-4.8-12.5-4.8c-2.6,0-5,0.5-7.3,1.5c-2.3,1-4.3,2.4-6.1,4.2c-2,2-3.5,4.3-4.5,6.9s-1.6,5.3-1.6,8.1
			c0,5.2,1.6,9.3,4.7,12.6c3.1,3.2,7.2,4.8,12.2,4.8c5.6,0,10.4-2,14.2-5.9S354.4,65.1,354.4,59.2z"/>
	</g>
	<g>
		<path class="st1" d="M378.3,36.1l-3.8,28.7c-0.2,1.1-0.3,2-0.3,2.9s-0.1,1.6-0.1,2.3c0,3.2,0.9,5.6,2.7,7.2
			c1.8,1.7,4.4,2.5,7.8,2.5c2.5,0,4.6-0.4,6.4-1.2c1.8-0.8,3.3-2.1,4.6-3.8c1.6-2.2,2.8-6.2,3.5-12c0.1-0.7,0.2-1.1,0.2-1.5
			l3.3-25.2h7.7l-3.6,27.8c-0.6,4.7-1.3,8.2-2.1,10.3s-1.8,4-3.1,5.6c-1.9,2.4-4.4,4.2-7.4,5.4c-3,1.2-6.5,1.8-10.4,1.8
			c-5.6,0-9.9-1.4-12.9-4.2c-3-2.8-4.4-6.8-4.4-12.1c0-1.2,0.1-2.8,0.3-4.9c0.2-2.1,0.5-4.4,0.8-7l3-22.6H378.3z"/>
	</g>
	<g>
		<path class="st1" d="M408.4,77.1l5.4-4.5c1.4,2.7,2.8,4.7,4.4,5.9c1.6,1.2,3.4,1.8,5.5,1.8c2.6,0,4.7-0.8,6.4-2.3
			c1.6-1.5,2.4-3.5,2.4-6c0-1.7-0.4-3.2-1.3-4.4c-0.9-1.2-2.4-2.4-4.5-3.7c-0.5-0.3-1.1-0.7-2-1.1c-3.7-2-6.2-3.8-7.5-5.2
			c-0.9-1-1.6-2.2-2.1-3.5c-0.5-1.3-0.7-2.8-0.7-4.3c0-4.3,1.4-7.9,4.2-10.6s6.4-4.1,10.9-4.1c3,0,5.7,0.6,8,1.9s4.2,3.1,5.7,5.5
			l-4.7,4.4c-1.1-1.8-2.3-3.1-3.7-4s-2.9-1.3-4.5-1.3c-2.4,0-4.4,0.7-5.9,2.1c-1.5,1.4-2.3,3.3-2.3,5.5c0,2.7,2.2,5.2,6.5,7.6
			c1.1,0.6,1.9,1,2.5,1.4c3.3,1.9,5.7,3.9,7.1,6c1.4,2.1,2.1,4.6,2.1,7.7c0,4.7-1.5,8.4-4.5,11.2c-3,2.8-7.1,4.1-12.3,4.1
			c-3.5,0-6.5-0.8-9-2.4C411.9,82.9,409.9,80.4,408.4,77.1z"/>
	</g>
</g>
</svg>
