<?xml version="1.0" encoding="utf-8"?>
<!-- Generator: Adobe Illustrator 28.1.0, SVG Export Plug-In . SVG Version: 6.00 Build 0)  -->
<svg version="1.1" id="레이어_1" xmlns="http://www.w3.org/2000/svg" xmlns:xlink="http://www.w3.org/1999/xlink" x="0px"
	 y="0px" viewBox="0 0 512 121.6" style="enable-background:new 0 0 512 121.6;" xml:space="preserve">
<style type="text/css">
	.st0{fill:#FFFFFF;}
	.st1{fill:#D426ED;}
	.st2{fill:#268EED;}
	.st3{fill:#0CC136;}
	.st4{fill:#E8A82A;}
	.st5{fill:#E52C2C;}
</style>
<g>
	<g>
		<path class="st0" d="M130.5,34.9c3,0,5.7,0.6,8,1.9c2.3,1.2,4.2,3.1,5.7,5.5l-4.7,4.4c-1.1-1.8-2.3-3.1-3.7-4
			c-1.4-0.9-2.9-1.3-4.5-1.3c-2.4,0-4.4,0.7-5.9,2.1c-1.5,1.4-2.3,3.3-2.3,5.5c0,2.7,2.2,5.2,6.5,7.6c1.1,0.6,1.9,1,2.5,1.4
			c3.3,1.9,5.7,3.9,7.1,6c1.4,2.1,2.1,4.6,2.1,7.7c0,4.7-1.5,8.4-4.5,11.2c-3,2.8-7.1,4.1-12.3,4.1c-3.5,0-6.5-0.8-9-2.4
			c-2.5-1.6-4.5-4.1-6-7.4l5.4-4.5c1.4,2.7,2.8,4.7,4.4,5.9c1.6,1.2,3.4,1.8,5.5,1.8c2.6,0,4.7-0.8,6.4-2.3c1.6-1.5,2.4-3.5,2.4-6
			c0-1.7-0.4-3.2-1.3-4.4c-0.9-1.2-2.4-2.4-4.5-3.7c-0.5-0.3-1.1-0.7-2-1.1c-3.7-2-6.2-3.8-7.5-5.2c-0.9-1-1.6-2.2-2.1-3.5
			c-0.5-1.3-0.7-2.8-0.7-4.3c0-4.3,1.4-7.9,4.2-10.6C122.3,36.3,126,34.9,130.5,34.9 M130.5,29.9c-5.8,0-10.7,1.9-14.4,5.5
			c-3.8,3.7-5.7,8.5-5.7,14.2c0,2.1,0.3,4.1,1,6c0.7,2,1.7,3.7,3.1,5.2c1.7,1.9,4.5,3.8,8.7,6.2c0.8,0.4,1.4,0.8,1.8,1.1
			c0,0,0,0,0.1,0c2.1,1.3,2.8,2.1,3,2.3c0.1,0.1,0.4,0.5,0.4,1.5c0,1.3-0.4,1.9-0.9,2.3c-0.4,0.4-1.2,0.9-2.9,0.9
			c-1,0-1.7-0.2-2.4-0.8c-0.7-0.5-1.7-1.6-3-4.1c-0.7-1.4-1.9-2.3-3.4-2.7c-0.3-0.1-0.7-0.1-1-0.1c-1.2,0-2.3,0.4-3.2,1.1l-5.4,4.5
			c-1.7,1.4-2.3,3.9-1.4,5.9c1.9,4.2,4.5,7.4,7.8,9.5c3.3,2.2,7.2,3.2,11.7,3.2c6.4,0,11.7-1.8,15.7-5.4c4.1-3.7,6.2-8.7,6.2-14.9
			c0-4-1-7.5-2.9-10.4c-1.8-2.7-4.7-5.2-8.7-7.6c-0.6-0.4-1.5-0.9-2.7-1.5c-3.5-1.9-3.9-3.1-3.9-3.1c0-1.1,0.4-1.6,0.7-1.9
			c0.4-0.3,1-0.8,2.5-0.8c0.7,0,1.3,0.2,1.8,0.5c0.7,0.5,1.4,1.3,2.1,2.4c0.8,1.3,2.1,2.1,3.6,2.3c0.2,0,0.5,0,0.7,0
			c1.2,0,2.5-0.5,3.4-1.3l4.7-4.4c1.7-1.6,2.1-4.2,0.9-6.3c-1.9-3.2-4.5-5.7-7.6-7.3C137.8,30.7,134.3,29.9,130.5,29.9L130.5,29.9z"
			/>
	</g>
	<g>
		<path class="st0" d="M161.6,36.1c3.9,0,6.8,0.2,8.5,0.7c1.7,0.5,3.3,1.2,4.6,2.3c1.5,1.2,2.6,2.6,3.4,4.4c0.8,1.7,1.2,3.7,1.2,5.9
			c0,2.5-0.5,4.8-1.4,6.8c-0.9,2-2.2,3.7-4,5.1c-1.5,1.2-3.2,2-5.2,2.5c-2,0.5-5.1,0.7-9.3,0.7h-2.2h-1.9l-2.8,21.1h-7.7l6.5-49.5
			H161.6 M156.3,57.4h2.6c4.9,0,8.2-0.6,9.9-1.7c1.8-1.2,2.7-3.2,2.7-6c0-2.4-0.7-4.1-2.2-5c-1.5-1-4.4-1.5-8.6-1.5h-2.5L156.3,57.4
			 M161.6,31.1h-10.2c-2.5,0-4.6,1.9-5,4.3l-6.5,49.5c-0.2,1.4,0.2,2.9,1.2,3.9c0.9,1.1,2.3,1.7,3.8,1.7h7.7c2.5,0,4.6-1.9,5-4.3
			l2.2-16.8c4.5,0,7.8-0.3,10.2-0.9c2.7-0.7,5.1-1.8,7.1-3.4c2.4-1.8,4.2-4.2,5.4-6.9c1.2-2.7,1.8-5.7,1.8-8.9
			c0-2.9-0.5-5.5-1.6-7.9c-1.1-2.5-2.8-4.6-4.9-6.2c-1.9-1.5-4.1-2.6-6.5-3.2C169.1,31.4,166,31.1,161.6,31.1L161.6,31.1z M162,52.3
			l0.5-4.1c2.4,0.1,3.5,0.4,3.9,0.6c0,0.1,0.1,0.4,0.1,0.9c0,0.9-0.2,1.7-0.4,1.8C166,51.5,165.2,52,162,52.3L162,52.3z"/>
	</g>
	<g>
		<path class="st0" d="M193,36.1L187.6,78h18.5l-1,7.6h-26.2l6.5-49.5H193 M193,31.1h-7.8c-2.5,0-4.6,1.9-5,4.3l-6.5,49.5
			c-0.2,1.4,0.2,2.9,1.2,3.9c0.9,1.1,2.3,1.7,3.8,1.7H205c2.5,0,4.6-1.8,5-4.3l1-7.6c0.2-1.4-0.2-2.9-1.2-4
			c-0.9-1.1-2.3-1.7-3.8-1.7h-12.8l4.7-36.2c0.2-1.4-0.3-2.9-1.2-3.9C195.9,31.7,194.5,31.1,193,31.1L193,31.1z"/>
	</g>
	<g>
		<path class="st0" d="M242.6,36.1l-0.9,7h-20.1L220,55.5h20l-0.9,6.9H219l-2.1,16H237l-1,7.1h-27.8l6.5-49.5H242.6 M242.6,31.1
			h-27.8c-2.5,0-4.6,1.9-5,4.3l-6.5,49.5c-0.2,1.4,0.2,2.9,1.2,3.9s2.3,1.7,3.8,1.7h27.8c2.5,0,4.6-1.8,5-4.3l1-7.1
			c0.2-1.4-0.2-2.9-1.2-4c-0.9-1.1-2.3-1.7-3.8-1.7h-14.4l0.8-6h15.7c2.5,0,4.6-1.9,5-4.3l0.9-6.9c0.2-1.4-0.2-2.9-1.2-3.9
			c-0.9-1.1-2.3-1.7-3.8-1.7h-14.3l0.3-2.4h15.7c2.5,0,4.6-1.9,5-4.4l0.9-7c0.2-1.4-0.3-2.9-1.2-3.9C245.4,31.7,244,31.1,242.6,31.1
			L242.6,31.1z"/>
	</g>
	<g>
		<path class="st0" d="M249.4,34.1l27,30.9c1,1.1,1.8,2.2,2.6,3.2s1.5,2,2.2,3c0-1,0.1-2.1,0.2-3.3c0.1-1.2,0.3-2.6,0.5-4.4
			l3.7-27.5h7.3l-6.7,51.4l-27.1-30.9c-1.2-1.4-2.2-2.6-2.9-3.5c-0.7-1-1.4-1.9-1.9-2.8c0,1.5-0.3,3.9-0.7,7c0,0.3-0.1,0.6-0.1,0.7
			l-3.5,27.5h-7.3L249.4,34.1 M249.4,29.1c-0.5,0-1,0.1-1.4,0.2c-1.9,0.6-3.3,2.2-3.5,4.1l-6.7,51.4c-0.2,1.4,0.3,2.9,1.2,3.9
			c0.9,1.1,2.3,1.7,3.8,1.7h7.3c2.5,0,4.6-1.9,5-4.4l3-23.4l24.5,28c1,1.1,2.3,1.7,3.8,1.7c0.5,0,1-0.1,1.5-0.2
			c1.9-0.6,3.3-2.2,3.5-4.1l6.7-51.4c0.2-1.4-0.3-2.9-1.2-3.9c-0.9-1.1-2.3-1.7-3.8-1.7h-7.3c-2.5,0-4.6,1.9-5,4.3l-3.1,23.3
			l-24.3-27.9C252.2,29.7,250.8,29.1,249.4,29.1L249.4,29.1z"/>
	</g>
	<g>
		<path class="st0" d="M311.8,36.1c5.5,0,9.5,0.3,12.2,1c2.6,0.7,5,1.8,7.2,3.5c2.7,2,4.7,4.6,6.1,7.8c1.4,3.2,2.1,6.8,2.1,10.7
			c0,3.5-0.6,6.8-1.7,10c-1.1,3.2-2.7,5.9-4.8,8.3c-1.5,1.7-3.1,3.1-5,4.3c-1.8,1.2-3.8,2-6,2.7c-1.4,0.4-3,0.7-4.6,0.9
			s-3.7,0.3-6.1,0.3h-4.8h-11.7l6.5-49.5H311.8 M303.4,78.5h2.8c5.6,0,9.5-0.3,11.8-0.8c2.3-0.5,4.3-1.4,6-2.6
			c2.3-1.6,4-3.8,5.3-6.6c1.3-2.7,1.9-5.8,1.9-9.1c0-2.8-0.5-5.4-1.5-7.7s-2.5-4.1-4.4-5.6c-1.5-1.1-3.1-1.9-5-2.4
			c-1.8-0.5-4.9-0.7-9.1-0.7H308L303.4,78.5 M311.8,31.1h-10.5c-2.5,0-4.6,1.9-5,4.3l-6.5,49.5c-0.2,1.4,0.2,2.9,1.2,3.9
			s2.3,1.7,3.8,1.7h11.7h4.8c2.7,0,4.8-0.1,6.7-0.3c1.9-0.2,3.7-0.6,5.4-1c2.6-0.7,5.1-1.8,7.3-3.2c2.2-1.4,4.3-3.2,6.1-5.2
			c2.5-2.8,4.4-6.2,5.7-9.9c1.3-3.7,2-7.6,2-11.7c0-4.6-0.9-8.9-2.6-12.8c-1.8-3.9-4.3-7.2-7.7-9.8c-2.7-2-5.7-3.5-8.9-4.3
			C322.1,31.5,317.7,31.1,311.8,31.1L311.8,31.1z M309.1,73.5l3.3-25.3c4.2,0,6,0.4,6.8,0.5c1.2,0.3,2.2,0.8,3.2,1.5
			c1.2,0.9,2.2,2.1,2.8,3.6c0.7,1.6,1.1,3.5,1.1,5.6c0,2.6-0.5,4.9-1.4,7c-0.9,2-2.1,3.5-3.7,4.6c-1.1,0.8-2.5,1.4-4.2,1.8
			C315.9,73.1,313.6,73.4,309.1,73.5L309.1,73.5z"/>
	</g>
	<g>
		<path class="st0" d="M356.1,36.1l-6.6,49.5h-7.8l6.5-49.5H356.1 M356.1,31.1h-7.9c-2.5,0-4.6,1.9-5,4.3l-6.5,49.5
			c-0.2,1.4,0.2,2.9,1.2,3.9c0.9,1.1,2.3,1.7,3.8,1.7h7.8c2.5,0,4.6-1.9,5-4.3l6.6-49.5c0.2-1.4-0.2-2.9-1.2-4
			C358.9,31.7,357.6,31.1,356.1,31.1L356.1,31.1z"/>
	</g>
	<g>
		<path class="st0" d="M375.1,36.1c5.5,0,9.5,0.3,12.2,1c2.6,0.7,5,1.8,7.2,3.5c2.7,2,4.7,4.6,6.1,7.8c1.4,3.2,2.1,6.8,2.1,10.7
			c0,3.5-0.6,6.8-1.7,10c-1.1,3.2-2.7,5.9-4.8,8.3c-1.5,1.7-3.1,3.1-5,4.3c-1.8,1.2-3.8,2-6,2.7c-1.4,0.4-3,0.7-4.6,0.9
			s-3.7,0.3-6.1,0.3h-4.8h-11.7l6.5-49.5H375.1 M366.8,78.5h2.8c5.6,0,9.5-0.3,11.8-0.8c2.3-0.5,4.3-1.4,6-2.6
			c2.3-1.6,4-3.8,5.3-6.6c1.3-2.7,1.9-5.8,1.9-9.1c0-2.8-0.5-5.4-1.5-7.7s-2.5-4.1-4.4-5.6c-1.5-1.1-3.1-1.9-5-2.4
			c-1.8-0.5-4.9-0.7-9.1-0.7h-3.3L366.8,78.5 M375.1,31.1h-10.5c-2.5,0-4.6,1.9-5,4.3l-6.5,49.5c-0.2,1.4,0.2,2.9,1.2,3.9
			s2.3,1.7,3.8,1.7h11.7h4.8c2.7,0,4.8-0.1,6.7-0.3c1.9-0.2,3.7-0.6,5.4-1c2.6-0.7,5.1-1.8,7.3-3.2c2.2-1.4,4.3-3.2,6.1-5.2
			c2.5-2.8,4.4-6.2,5.7-9.9c1.3-3.7,2-7.6,2-11.7c0-4.6-0.9-8.9-2.6-12.8c-1.8-3.9-4.3-7.2-7.7-9.8c-2.7-2-5.7-3.5-8.9-4.3
			C385.5,31.5,381.1,31.1,375.1,31.1L375.1,31.1z M372.5,73.5l3.3-25.3c4.2,0,6,0.4,6.8,0.5c1.2,0.3,2.2,0.8,3.2,1.5
			c1.2,0.9,2.2,2.1,2.8,3.6c0.7,1.6,1.1,3.5,1.1,5.6c0,2.6-0.5,4.9-1.4,7c-0.9,2-2.1,3.5-3.7,4.6c-1.1,0.8-2.5,1.4-4.2,1.8
			C379.2,73.1,377,73.4,372.5,73.5L372.5,73.5z"/>
	</g>
</g>
<g>
	<g>
		<path class="st2" d="M109.3,77l5.4-4.5c1.4,2.7,2.8,4.7,4.4,5.9c1.6,1.2,3.4,1.8,5.5,1.8c2.6,0,4.7-0.8,6.4-2.3
			c1.6-1.5,2.4-3.5,2.4-6c0-1.7-0.4-3.2-1.3-4.4c-0.9-1.2-2.4-2.4-4.5-3.7c-0.5-0.3-1.1-0.7-2-1.1c-3.7-2-6.2-3.8-7.5-5.2
			c-0.9-1-1.6-2.2-2.1-3.5c-0.5-1.3-0.7-2.8-0.7-4.3c0-4.3,1.4-7.9,4.2-10.6c2.8-2.7,6.4-4.1,10.9-4.1c3,0,5.7,0.6,8,1.9
			c2.3,1.2,4.2,3.1,5.7,5.5l-4.7,4.4c-1.1-1.8-2.3-3.1-3.7-4c-1.4-0.9-2.9-1.3-4.5-1.3c-2.4,0-4.4,0.7-5.9,2.1
			c-1.5,1.4-2.3,3.3-2.3,5.5c0,2.7,2.2,5.2,6.5,7.6c1.1,0.6,1.9,1,2.5,1.4c3.3,1.9,5.7,3.9,7.1,6c1.4,2.1,2.1,4.6,2.1,7.7
			c0,4.7-1.5,8.4-4.5,11.2c-3,2.8-7.1,4.1-12.3,4.1c-3.5,0-6.5-0.8-9-2.4C112.8,82.8,110.8,80.4,109.3,77z"/>
	</g>
	<g>
		<path class="st2" d="M152.6,85.6h-7.7l6.5-49.5h10.2c3.9,0,6.8,0.2,8.5,0.7c1.7,0.5,3.3,1.2,4.6,2.3c1.5,1.2,2.6,2.6,3.4,4.4
			c0.8,1.7,1.2,3.7,1.2,5.9c0,2.5-0.5,4.8-1.4,6.8c-0.9,2-2.2,3.7-4,5.1c-1.5,1.2-3.2,2-5.2,2.5c-2,0.5-5.1,0.7-9.3,0.7h-2.2h-1.9
			L152.6,85.6z M156.3,57.4h2.6c4.9,0,8.2-0.6,9.9-1.7c1.8-1.2,2.7-3.2,2.7-6c0-2.4-0.7-4.1-2.2-5c-1.5-1-4.4-1.5-8.6-1.5h-2.5
			L156.3,57.4z"/>
	</g>
	<g>
		<path class="st2" d="M178.8,85.6l6.5-49.5h7.8L187.6,78h18.5l-1,7.6H178.8z"/>
	</g>
	<g>
		<path class="st2" d="M208.3,85.6l6.5-49.5h27.8l-0.9,7h-20.1L220,55.5h20l-0.9,6.9H219l-2.1,16H237l-1,7.1H208.3z"/>
	</g>
	<g>
		<path class="st2" d="M242.7,85.6l6.7-51.4l27,30.9c1,1.1,1.8,2.2,2.6,3.2s1.5,2,2.2,3c0-1,0.1-2.1,0.2-3.3
			c0.1-1.2,0.3-2.6,0.5-4.4l3.7-27.5h7.3l-6.7,51.4l-27.1-30.9c-1.2-1.4-2.2-2.6-2.9-3.5c-0.7-1-1.4-1.9-1.9-2.8
			c0,1.5-0.3,3.9-0.7,7c0,0.3-0.1,0.6-0.1,0.7l-3.5,27.5H242.7z"/>
	</g>
	<g>
		<path class="st2" d="M294.8,85.6l6.5-49.5h10.5c5.5,0,9.5,0.3,12.2,1c2.6,0.7,5,1.8,7.2,3.5c2.7,2,4.7,4.6,6.1,7.8
			c1.4,3.2,2.1,6.8,2.1,10.7c0,3.5-0.6,6.8-1.7,10c-1.1,3.2-2.7,5.9-4.8,8.3c-1.5,1.7-3.1,3.1-5,4.3c-1.8,1.2-3.8,2-6,2.7
			c-1.4,0.4-3,0.7-4.6,0.9s-3.7,0.3-6.1,0.3h-4.8H294.8z M303.4,78.5h2.8c5.6,0,9.5-0.3,11.8-0.8c2.3-0.5,4.3-1.4,6-2.6
			c2.3-1.6,4-3.8,5.3-6.6c1.3-2.7,1.9-5.8,1.9-9.1c0-2.8-0.5-5.4-1.5-7.7s-2.5-4.1-4.4-5.6c-1.5-1.1-3.1-1.9-5-2.4
			c-1.8-0.5-4.9-0.7-9.1-0.7H308L303.4,78.5z"/>
	</g>
	<g>
		<path class="st2" d="M341.7,85.6l6.5-49.5h7.9l-6.6,49.5H341.7z"/>
	</g>
	<g>
		<path class="st2" d="M358.1,85.6l6.5-49.5h10.5c5.5,0,9.5,0.3,12.2,1c2.6,0.7,5,1.8,7.2,3.5c2.7,2,4.7,4.6,6.1,7.8
			c1.4,3.2,2.1,6.8,2.1,10.7c0,3.5-0.6,6.8-1.7,10c-1.1,3.2-2.7,5.9-4.8,8.3c-1.5,1.7-3.1,3.1-5,4.3c-1.8,1.2-3.8,2-6,2.7
			c-1.4,0.4-3,0.7-4.6,0.9s-3.7,0.3-6.1,0.3h-4.8H358.1z M366.8,78.5h2.8c5.6,0,9.5-0.3,11.8-0.8c2.3-0.5,4.3-1.4,6-2.6
			c2.3-1.6,4-3.8,5.3-6.6c1.3-2.7,1.9-5.8,1.9-9.1c0-2.8-0.5-5.4-1.5-7.7s-2.5-4.1-4.4-5.6c-1.5-1.1-3.1-1.9-5-2.4
			c-1.8-0.5-4.9-0.7-9.1-0.7h-3.3L366.8,78.5z"/>
	</g>
</g>
</svg>
