<?xml version="1.0" encoding="utf-8"?>
<!-- Generator: Adobe Illustrator 28.1.0, SVG Export Plug-In . SVG Version: 6.00 Build 0)  -->
<svg version="1.1" id="레이어_1" xmlns="http://www.w3.org/2000/svg" xmlns:xlink="http://www.w3.org/1999/xlink" x="0px"
	 y="0px" viewBox="0 0 512 121.6" style="enable-background:new 0 0 512 121.6;" xml:space="preserve">
<style type="text/css">
	.st0{fill:#FFFFFF;}
	.st1{fill:#D426ED;}
	.st2{fill:#268EED;}
	.st3{fill:#0CC136;}
	.st4{fill:#E8A82A;}
	.st5{fill:#E52C2C;}
</style>
<g>
	<g>
		<path class="st0" d="M185.3,35.3c4.5,0,8.5,0.8,11.8,2.4s6.5,4.1,9.4,7.7l-5.5,5.2c-2.2-2.8-4.6-4.9-7.2-6.2c-2.7-1.4-5.6-2-8.9-2
			c-2.6,0-5.1,0.5-7.4,1.4c-2.3,0.9-4.3,2.3-6.1,4.1c-2,2.1-3.5,4.4-4.6,7c-1.1,2.6-1.6,5.3-1.6,8.1c0,5.2,1.6,9.4,4.7,12.6
			c3.2,3.2,7.3,4.8,12.5,4.8c4.1,0,7.6-1.1,10.4-3.4c2.8-2.3,4.4-5.3,4.9-9H185l0.8-7H207c0,8.2-2.2,14.6-6.7,19.3
			c-4.5,4.7-10.5,7.1-18.2,7.1c-7.4,0-13.3-2.2-17.8-6.6c-4.5-4.4-6.7-10.2-6.7-17.5c0-4.1,0.7-7.8,2.1-11.3c1.4-3.5,3.4-6.5,6.1-9
			c2.5-2.4,5.5-4.3,8.8-5.6C177.9,35.9,181.5,35.3,185.3,35.3 M185.3,30.3c-4.4,0-8.6,0.8-12.5,2.2c-3.9,1.5-7.5,3.7-10.5,6.6
			c-3.1,3-5.6,6.6-7.2,10.8c-1.6,4.1-2.5,8.5-2.5,13.2c0,8.6,2.8,15.7,8.2,21.1c5.4,5.3,12.6,8,21.3,8c9.1,0,16.4-2.9,21.8-8.6
			c5.3-5.7,8.1-13.3,8.1-22.8c0-2.8-2.2-5-5-5h-21.1c-2.5,0-4.7,1.9-5,4.4l-0.8,7c-0.2,1.4,0.3,2.8,1.2,3.9s2.3,1.7,3.7,1.7h4.9
			c0,0-0.1,0.1-0.1,0.1c-1.9,1.6-4.3,2.3-7.2,2.3c-3.8,0-6.8-1.1-8.9-3.3c-2.2-2.2-3.3-5.2-3.3-9.1c0-2.2,0.4-4.2,1.2-6.2
			c0.8-2,2-3.8,3.5-5.4c1.3-1.3,2.7-2.3,4.4-3c1.7-0.7,3.5-1,5.5-1c2.5,0,4.7,0.5,6.7,1.5c2,1,3.9,2.6,5.6,4.8
			c0.9,1.1,2.2,1.8,3.6,1.9c0.1,0,0.3,0,0.4,0c1.3,0,2.5-0.5,3.4-1.4l5.5-5.2c1.9-1.8,2.1-4.8,0.4-6.8c-3.4-4.1-7.2-7.1-11.1-9
			C195.3,31.2,190.6,30.3,185.3,30.3L185.3,30.3z"/>
	</g>
	<g>
		<path class="st0" d="M224.8,36.4c3.9,0,6.8,0.2,8.5,0.7c1.7,0.5,3.3,1.2,4.6,2.3c1.5,1.2,2.7,2.6,3.5,4.4c0.8,1.8,1.2,3.7,1.2,5.8
			c0,4.1-1.1,7.4-3.3,10c-2.2,2.6-5.4,4.2-9.5,4.8l13.7,21.5h-8.7l-13.1-21.2h-1.8l-2.8,21.2h-7.7l6.5-49.5H224.8 M220.7,58.4h1.6
			c4.9,0,8.2-0.6,9.9-1.8c1.8-1.2,2.6-3.3,2.6-6.3c0-2.5-0.7-4.3-2.2-5.3c-1.5-1-4.4-1.5-8.6-1.5h-1.2L220.7,58.4 M224.8,31.4h-8.9
			c-2.5,0-4.6,1.9-5,4.3l-6.5,49.5c-0.2,1.4,0.2,2.9,1.2,3.9c0.9,1.1,2.3,1.7,3.8,1.7h7.7c2.5,0,4.6-1.9,5-4.3l1.3-9.7l7.2,11.7
			c0.9,1.5,2.5,2.4,4.3,2.4h8.7c1.8,0,3.5-1,4.4-2.6s0.8-3.6-0.2-5.1l-10.2-16c2.1-1.1,4-2.5,5.5-4.3c3-3.5,4.6-7.9,4.6-13.2
			c0-2.8-0.6-5.5-1.6-7.9c-1.1-2.5-2.8-4.6-4.9-6.2c-1.9-1.5-4.1-2.6-6.5-3.2C232.4,31.7,229.3,31.4,224.8,31.4L224.8,31.4z
			 M226.4,53.2l0.6-4.6c1.6,0.1,2.3,0.4,2.6,0.5c0.1,0.2,0.1,0.5,0.1,1.2c0,1.3-0.2,2-0.5,2.2C229.3,52.5,228.6,52.9,226.4,53.2
			L226.4,53.2z"/>
	</g>
	<g>
		<path class="st0" d="M280.1,36.4l-0.9,7h-20.1l-1.6,12.4h20l-0.9,6.9h-20.1l-2.1,16h20.1l-1,7.1h-27.8l6.5-49.5H280.1 M280.1,31.4
			h-27.8c-2.5,0-4.6,1.9-5,4.3l-6.5,49.5c-0.2,1.4,0.2,2.9,1.2,3.9c0.9,1.1,2.3,1.7,3.8,1.7h27.8c2.5,0,4.6-1.8,5-4.3l1-7.1
			c0.2-1.4-0.2-2.9-1.2-4c-0.9-1.1-2.3-1.7-3.8-1.7h-14.4l0.8-6h15.7c2.5,0,4.6-1.9,5-4.3l0.9-6.9c0.2-1.4-0.2-2.9-1.2-3.9
			c-0.9-1.1-2.3-1.7-3.8-1.7h-14.3l0.3-2.4h15.7c2.5,0,4.6-1.9,5-4.4l0.9-7c0.2-1.4-0.3-2.9-1.2-3.9
			C282.9,32.1,281.5,31.4,280.1,31.4L280.1,31.4z"/>
	</g>
	<g>
		<path class="st0" d="M304.3,34.5l18.1,51.4h-8l-4-11.7h-19.7l-6.5,11.7h-8.4L304.3,34.5 M293.7,67.6h14.5l-3.8-12.2
			c-0.2-0.6-0.4-1.4-0.6-2.3c-0.2-1-0.5-2.2-0.7-3.8c-0.5,1.2-1,2.3-1.5,3.3c-0.5,1-1,2-1.4,3L293.7,67.6 M304.3,29.5
			c-1.8,0-3.5,1-4.4,2.6l-28.7,51.4c-0.9,1.5-0.8,3.4,0.1,5c0.9,1.5,2.5,2.5,4.3,2.5h8.4c1.8,0,3.5-1,4.4-2.6l5.1-9.1h13.2l2.9,8.3
			c0.7,2,2.6,3.4,4.7,3.4h8c1.6,0,3.1-0.8,4.1-2.1s1.2-3,0.6-4.5L309,32.8c-0.7-1.9-2.3-3.2-4.3-3.3
			C304.6,29.5,304.4,29.5,304.3,29.5L304.3,29.5z"/>
	</g>
	<g>
		<path class="st0" d="M354.4,36.4l-1,7.1h-12.6l-5.6,42.3h-7.8l5.6-42.3h-13.3l0.9-7.1H354.4 M354.4,31.4h-33.8
			c-2.5,0-4.6,1.9-5,4.3l-0.9,7.1c-0.2,1.4,0.2,2.9,1.2,4c0.9,1.1,2.3,1.7,3.8,1.7h7.6l-4.9,36.7c-0.2,1.4,0.2,2.9,1.2,4
			c0.9,1.1,2.3,1.7,3.8,1.7h7.8c2.5,0,4.6-1.9,5-4.3l5-38h8.2c2.5,0,4.6-1.8,5-4.3l1-7.1c0.2-1.4-0.2-2.9-1.2-4
			S355.8,31.4,354.4,31.4L354.4,31.4z"/>
	</g>
</g>
<g>
	<g>
		<path class="st3" d="M201.1,50.5c-2.2-2.8-4.6-4.9-7.2-6.2c-2.7-1.4-5.6-2-8.9-2c-2.6,0-5.1,0.5-7.4,1.4c-2.3,0.9-4.3,2.3-6.1,4.1
			c-2,2.1-3.5,4.4-4.6,7c-1.1,2.6-1.6,5.3-1.6,8.1c0,5.2,1.6,9.4,4.7,12.6c3.2,3.2,7.3,4.8,12.5,4.8c4.1,0,7.6-1.1,10.4-3.4
			c2.8-2.3,4.4-5.3,4.9-9H185l0.8-7H207c0,8.2-2.2,14.6-6.7,19.3c-4.5,4.7-10.5,7.1-18.2,7.1c-7.4,0-13.3-2.2-17.8-6.6
			c-4.5-4.4-6.7-10.2-6.7-17.5c0-4.1,0.7-7.8,2.1-11.3c1.4-3.5,3.4-6.5,6.1-9c2.5-2.4,5.5-4.3,8.8-5.6c3.3-1.3,6.9-1.9,10.7-1.9
			c4.5,0,8.5,0.8,11.8,2.4s6.5,4.1,9.4,7.7L201.1,50.5z"/>
	</g>
	<g>
		<path class="st3" d="M217.1,85.9h-7.7l6.5-49.5h8.9c3.9,0,6.8,0.2,8.5,0.7c1.7,0.5,3.3,1.2,4.6,2.3c1.5,1.2,2.7,2.6,3.5,4.4
			c0.8,1.8,1.2,3.7,1.2,5.8c0,4.1-1.1,7.4-3.3,10c-2.2,2.6-5.4,4.2-9.5,4.8l13.7,21.5h-8.7l-13.1-21.2h-1.8L217.1,85.9z M220.7,58.4
			h1.6c4.9,0,8.2-0.6,9.9-1.8c1.8-1.2,2.6-3.3,2.6-6.3c0-2.5-0.7-4.3-2.2-5.3c-1.5-1-4.4-1.5-8.6-1.5h-1.2L220.7,58.4z"/>
	</g>
	<g>
		<path class="st3" d="M245.8,85.9l6.5-49.5h27.8l-0.9,7h-20.1l-1.6,12.4h20l-0.9,6.9h-20.1l-2.1,16h20.1l-1,7.1H245.8z"/>
	</g>
	<g>
		<path class="st3" d="M275.7,85.9l28.7-51.4l18.1,51.4h-8l-4-11.7h-19.7l-6.5,11.7H275.7z M293.7,67.6h14.5l-3.8-12.2
			c-0.2-0.6-0.4-1.4-0.6-2.3c-0.2-1-0.5-2.2-0.7-3.8c-0.5,1.2-1,2.3-1.5,3.3c-0.5,1-1,2-1.4,3L293.7,67.6z"/>
	</g>
	<g>
		<path class="st3" d="M327.4,85.9l5.6-42.3h-13.3l0.9-7.1h33.8l-1,7.1h-12.6l-5.6,42.3H327.4z"/>
	</g>
</g>
</svg>
