<?xml version="1.0" encoding="utf-8"?>
<!-- Generator: Adobe Illustrator 28.1.0, SVG Export Plug-In . SVG Version: 6.00 Build 0)  -->
<svg version="1.1" id="레이어_1" xmlns="http://www.w3.org/2000/svg" xmlns:xlink="http://www.w3.org/1999/xlink" x="0px"
	 y="0px" viewBox="0 0 512 121.6" style="enable-background:new 0 0 512 121.6;" xml:space="preserve">
<style type="text/css">
	.st0{fill:#FFFFFF;}
	.st1{fill:#3C70BA;}
	.st2{fill:#1F9935;}
	.st3{fill:#FFCE00;}
	.st4{fill:#BC3B3B;}
</style>
<g>
	<g>
		<path class="st0" d="M235.8,34.9c7.5,0,13.5,2.2,18,6.6c4.5,4.4,6.7,10.2,6.7,17.6c0,3.9-0.7,7.7-2.2,11.1
			c-1.5,3.5-3.5,6.5-6.2,9.1c-2.6,2.4-5.6,4.3-9,5.6c-3.4,1.3-7,1.9-10.9,1.9c-7.2,0-13-2.2-17.4-6.6c-4.4-4.4-6.6-10.2-6.6-17.4
			c0-4,0.7-7.8,2.1-11.3c1.4-3.5,3.5-6.5,6.1-9.1c2.5-2.4,5.5-4.3,8.8-5.6C228.6,35.5,232.1,34.9,235.8,34.9 M232.8,79.8
			c5.6,0,10.4-2,14.2-5.9c3.8-4,5.7-8.9,5.7-14.7c0-5.2-1.6-9.4-4.7-12.6s-7.3-4.8-12.5-4.8c-2.6,0-5,0.5-7.3,1.5
			c-2.3,1-4.3,2.4-6.1,4.2c-2,2-3.5,4.3-4.5,6.9c-1,2.6-1.6,5.3-1.6,8.1c0,5.2,1.6,9.3,4.7,12.6C223.7,78.2,227.8,79.8,232.8,79.8
			 M235.8,29.9c-4.3,0-8.4,0.8-12.3,2.3c-4,1.5-7.5,3.8-10.5,6.6c-3.2,3-5.6,6.7-7.3,10.8c-1.7,4.1-2.5,8.5-2.5,13.1
			c0,8.5,2.7,15.6,8.1,20.9c5.4,5.4,12.4,8.1,20.9,8.1c4.4,0,8.7-0.8,12.7-2.3c4-1.5,7.6-3.7,10.6-6.6c3.2-3.1,5.7-6.7,7.4-10.8
			c1.7-4.1,2.6-8.5,2.6-13.1c0-8.7-2.8-15.8-8.2-21.2C251.9,32.6,244.6,29.9,235.8,29.9L235.8,29.9z M232.8,74.8
			c-3.6,0-6.4-1.1-8.6-3.3c-2.2-2.3-3.3-5.2-3.3-9.1c0-2.2,0.4-4.3,1.2-6.3c0.8-2,1.9-3.7,3.5-5.3c0,0,0,0,0-0.1
			c1.2-1.3,2.7-2.3,4.4-3c1.7-0.7,3.5-1.1,5.4-1.1c3.8,0,6.8,1.1,9,3.3c2.2,2.2,3.3,5.2,3.3,9.1c0,4.6-1.4,8.3-4.3,11.3
			C240.5,73.4,237,74.8,232.8,74.8L232.8,74.8z"/>
	</g>
	<g>
		<path class="st0" d="M303.8,36l-23.2,23.4l20.1,26.1h-9.5l-17.6-23.3l-3,23.3h-7.7l6.5-49.5h7.8l-2.6,20.3L294.2,36H303.8
			 M303.8,31h-9.6c-1.4,0-2.6,0.5-3.6,1.5l-9.2,9.5l0.7-5.4c0.2-1.4-0.3-2.9-1.2-3.9c-0.9-1.1-2.3-1.7-3.8-1.7h-7.8
			c-2.5,0-4.6,1.9-5,4.3l-6.5,49.5c-0.2,1.4,0.2,2.9,1.2,3.9c0.9,1.1,2.3,1.7,3.8,1.7h7.7c2.5,0,4.6-1.9,5-4.4L277,75l10.2,13.5
			c0.9,1.3,2.4,2,4,2h9.5c1.9,0,3.6-1.1,4.5-2.8c0.8-1.7,0.6-3.7-0.5-5.3l-17.4-22.6l20.1-20.3c1.4-1.4,1.8-3.6,1.1-5.4
			C307.6,32.3,305.8,31,303.8,31L303.8,31z"/>
	</g>
</g>
<g>
	<g>
		<path class="st3" d="M235.8,34.9c7.5,0,13.5,2.2,18,6.6c4.5,4.4,6.7,10.2,6.7,17.6c0,3.9-0.7,7.7-2.2,11.1
			c-1.5,3.5-3.5,6.5-6.2,9.1c-2.6,2.4-5.6,4.3-9,5.6c-3.4,1.3-7,1.9-10.9,1.9c-7.2,0-13-2.2-17.4-6.6c-4.4-4.4-6.6-10.2-6.6-17.4
			c0-4,0.7-7.8,2.1-11.3c1.4-3.5,3.5-6.5,6.1-9.1c2.5-2.4,5.5-4.3,8.8-5.6C228.6,35.5,232.1,34.9,235.8,34.9z M252.7,59.2
			c0-5.2-1.6-9.4-4.7-12.6s-7.3-4.8-12.5-4.8c-2.6,0-5,0.5-7.3,1.5s-4.3,2.4-6.1,4.2c-2,2-3.5,4.3-4.5,6.9c-1,2.6-1.6,5.3-1.6,8.1
			c0,5.2,1.6,9.3,4.7,12.6c3.1,3.2,7.2,4.8,12.2,4.8c5.6,0,10.4-2,14.2-5.9C250.8,70,252.7,65,252.7,59.2z"/>
	</g>
	<g>
		<path class="st3" d="M262.8,85.5l6.5-49.5h7.8l-2.6,20.3L294.2,36h9.6l-23.2,23.4l20.1,26.1h-9.5l-17.6-23.3l-3,23.3H262.8z"/>
	</g>
</g>
</svg>
