<?xml version="1.0" encoding="utf-8"?>
<!-- Generator: Adobe Illustrator 28.1.0, SVG Export Plug-In . SVG Version: 6.00 Build 0)  -->
<svg version="1.1" id="레이어_1" xmlns="http://www.w3.org/2000/svg" xmlns:xlink="http://www.w3.org/1999/xlink" x="0px"
	 y="0px" viewBox="0 0 512 121.6" style="enable-background:new 0 0 512 121.6;" xml:space="preserve">
<style type="text/css">
	.st0{fill:#FFFFFF;}
	.st1{fill:#D426ED;}
	.st2{fill:#268EED;}
	.st3{fill:#28EA52;}
	.st4{fill:#E8A82A;}
	.st5{fill:#E52C2C;}
</style>
<g>
	<g>
		<path class="st0" d="M239.6,34l2.3,51.6h-7.7l-0.3-25.2v-1.2c0-1,0-1.9,0.1-2.9c0-0.9,0.1-1.9,0.2-2.8c-0.3,0.9-0.7,1.8-1.2,2.8
			s-1.2,2.1-2.2,3.6l-17.8,27.7L202.6,60c-0.2-0.6-0.5-1.4-0.8-2.4c-0.3-1-0.7-2.3-1.2-4c-0.1,1.4-0.6,3.6-1.4,6.6l0,0.1l-7.4,25.3
			h-7.9L200.1,34l12,32c0.6,1.6,1.1,2.9,1.5,4.1c0.4,1.1,0.7,2.3,1,3.4c0.6-1.3,1.2-2.6,1.9-3.8c0.7-1.3,1.4-2.5,2.2-3.8L239.6,34
			 M239.6,29c-1.7,0-3.2,0.8-4.2,2.3l-19.7,30.1l-10.9-29.1c-0.7-2-2.6-3.2-4.7-3.2c0,0-0.1,0-0.1,0c-2.1,0.1-4,1.5-4.6,3.5
			l-16.3,51.6c-0.5,1.5-0.2,3.2,0.7,4.5c0.9,1.3,2.4,2,4,2h7.9c2.2,0,4.2-1.5,4.8-3.6l4.8-16.2l6.9,18.5c0.7,1.8,2.3,3,4.1,3.2
			c0.2,0,0.4,0,0.5,0c1.7,0,3.3-0.9,4.2-2.3L229,71.8l0.2,13.9c0,2.7,2.3,4.9,5,4.9h7.7c1.4,0,2.7-0.6,3.6-1.5
			c0.9-1,1.4-2.3,1.4-3.7l-2.3-51.6c-0.1-2.2-1.6-4-3.7-4.6C240.4,29.1,240,29,239.6,29L239.6,29z"/>
	</g>
	<g>
		<path class="st0" d="M260.8,36.1l-6.6,49.5h-7.8l6.5-49.5H260.8 M260.8,31.1h-7.9c-2.5,0-4.6,1.9-5,4.3l-6.5,49.5
			c-0.2,1.4,0.2,2.9,1.2,3.9c0.9,1.1,2.3,1.7,3.8,1.7h7.8c2.5,0,4.6-1.9,5-4.3l6.6-49.5c0.2-1.4-0.2-2.9-1.2-4
			C263.6,31.8,262.2,31.1,260.8,31.1L260.8,31.1z"/>
	</g>
	<g>
		<path class="st0" d="M280.8,35c3,0,5.7,0.6,8,1.9c2.3,1.2,4.2,3.1,5.7,5.5l-4.7,4.4c-1.1-1.8-2.3-3.1-3.7-4
			c-1.4-0.9-2.9-1.3-4.5-1.3c-2.4,0-4.4,0.7-5.9,2.1c-1.5,1.4-2.3,3.3-2.3,5.5c0,2.7,2.2,5.2,6.5,7.6c1.1,0.6,1.9,1,2.5,1.4
			c3.3,1.9,5.7,3.9,7.1,6c1.4,2.1,2.1,4.6,2.1,7.7c0,4.7-1.5,8.4-4.5,11.2c-3,2.8-7.1,4.1-12.3,4.1c-3.5,0-6.5-0.8-9-2.4
			c-2.5-1.6-4.5-4.1-6-7.4l5.4-4.5c1.4,2.7,2.8,4.7,4.4,5.9c1.6,1.2,3.4,1.8,5.5,1.8c2.6,0,4.7-0.8,6.4-2.3c1.6-1.5,2.4-3.5,2.4-6
			c0-1.7-0.4-3.2-1.3-4.4c-0.9-1.2-2.4-2.4-4.5-3.7c-0.5-0.3-1.1-0.7-2-1.1c-3.7-2-6.2-3.8-7.5-5.2c-0.9-1-1.6-2.2-2.1-3.5
			c-0.5-1.3-0.7-2.8-0.7-4.3c0-4.3,1.4-7.9,4.2-10.6C272.6,36.3,276.3,35,280.8,35 M280.8,30c-5.8,0-10.7,1.9-14.4,5.5
			c-3.8,3.7-5.7,8.5-5.7,14.2c0,2.1,0.3,4.1,1,6c0.7,2,1.7,3.7,3.1,5.2c1.7,1.9,4.5,3.8,8.7,6.2c0.8,0.4,1.4,0.8,1.8,1.1
			c0,0,0,0,0.1,0c2.1,1.3,2.8,2.1,3,2.3c0.1,0.1,0.4,0.5,0.4,1.5c0,1.3-0.4,1.9-0.9,2.3c-0.4,0.4-1.2,0.9-2.9,0.9
			c-1,0-1.7-0.2-2.4-0.8c-0.7-0.5-1.7-1.6-2.9-4.1c-0.7-1.4-1.9-2.3-3.4-2.7c-0.3-0.1-0.7-0.1-1-0.1c-1.2,0-2.3,0.4-3.2,1.1
			l-5.4,4.5c-1.7,1.4-2.3,3.9-1.4,5.9c1.9,4.2,4.5,7.4,7.8,9.5c3.3,2.2,7.2,3.2,11.7,3.2c6.4,0,11.7-1.8,15.7-5.4
			c4.1-3.7,6.2-8.7,6.2-14.9c0-4-1-7.5-2.9-10.4c-1.8-2.7-4.7-5.2-8.7-7.6c-0.6-0.4-1.5-0.9-2.7-1.5c-3.5-1.9-3.9-3.1-3.9-3.1
			c0-1.1,0.4-1.6,0.7-1.9c0.4-0.3,1-0.8,2.5-0.8c0.7,0,1.3,0.2,1.8,0.5c0.7,0.5,1.4,1.3,2.1,2.4c0.8,1.3,2.1,2.1,3.6,2.3
			c0.2,0,0.5,0,0.7,0c1.2,0,2.5-0.5,3.4-1.3l4.7-4.4c1.7-1.6,2.1-4.2,0.9-6.3c-1.9-3.2-4.5-5.7-7.6-7.3
			C288.2,30.8,284.7,30,280.8,30L280.8,30z"/>
	</g>
	<g>
		<path class="st0" d="M314.5,35c3,0,5.7,0.6,8,1.9c2.3,1.2,4.2,3.1,5.7,5.5l-4.7,4.4c-1.1-1.8-2.3-3.1-3.7-4
			c-1.4-0.9-2.9-1.3-4.5-1.3c-2.4,0-4.4,0.7-5.9,2.1c-1.5,1.4-2.3,3.3-2.3,5.5c0,2.7,2.2,5.2,6.5,7.6c1.1,0.6,1.9,1,2.5,1.4
			c3.3,1.9,5.7,3.9,7.1,6c1.4,2.1,2.1,4.6,2.1,7.7c0,4.7-1.5,8.4-4.5,11.2c-3,2.8-7.1,4.1-12.3,4.1c-3.5,0-6.5-0.8-9-2.4
			c-2.5-1.6-4.5-4.1-6-7.4l5.4-4.5c1.4,2.7,2.8,4.7,4.4,5.9c1.6,1.2,3.4,1.8,5.5,1.8c2.6,0,4.7-0.8,6.4-2.3c1.6-1.5,2.4-3.5,2.4-6
			c0-1.7-0.4-3.2-1.3-4.4c-0.9-1.2-2.4-2.4-4.5-3.7c-0.5-0.3-1.1-0.7-2-1.1c-3.7-2-6.2-3.8-7.5-5.2c-0.9-1-1.6-2.2-2.1-3.5
			c-0.5-1.3-0.7-2.8-0.7-4.3c0-4.3,1.4-7.9,4.2-10.6C306.4,36.3,310,35,314.5,35 M314.5,30c-5.8,0-10.7,1.9-14.4,5.5
			c-3.8,3.7-5.7,8.5-5.7,14.2c0,2.1,0.3,4.1,1,6c0.7,2,1.7,3.7,3.1,5.2c1.7,1.9,4.5,3.8,8.7,6.2c0.8,0.4,1.4,0.8,1.8,1.1
			c0,0,0,0,0.1,0c2.1,1.3,2.8,2.1,3,2.3c0.1,0.1,0.4,0.5,0.4,1.5c0,1.3-0.4,1.9-0.9,2.3c-0.4,0.4-1.2,0.9-2.9,0.9
			c-1,0-1.7-0.2-2.4-0.8c-0.7-0.5-1.7-1.6-2.9-4.1c-0.7-1.4-1.9-2.3-3.4-2.7c-0.3-0.1-0.7-0.1-1-0.1c-1.2,0-2.3,0.4-3.2,1.1
			l-5.4,4.5c-1.7,1.4-2.3,3.9-1.4,5.9c1.9,4.2,4.5,7.4,7.8,9.5c3.3,2.2,7.2,3.2,11.7,3.2c6.4,0,11.7-1.8,15.7-5.4
			c4.1-3.7,6.2-8.7,6.2-14.9c0-4-1-7.5-2.9-10.4c-1.8-2.7-4.7-5.2-8.7-7.6c-0.6-0.4-1.5-0.9-2.7-1.5c-3.5-1.9-3.9-3.1-3.9-3.1
			c0-1.1,0.4-1.6,0.7-1.9c0.4-0.3,1-0.8,2.5-0.8c0.7,0,1.3,0.2,1.8,0.5c0.7,0.5,1.4,1.3,2.1,2.4c0.8,1.3,2.1,2.1,3.6,2.3
			c0.2,0,0.5,0,0.7,0c1.2,0,2.5-0.5,3.4-1.3l4.7-4.4c1.7-1.6,2.1-4.2,0.9-6.3c-1.9-3.2-4.5-5.7-7.6-7.3
			C321.9,30.8,318.4,30,314.5,30L314.5,30z"/>
	</g>
</g>
<g>
	<g>
		<path class="st5" d="M233.8,60.4v-1.2c0-1,0-1.9,0.1-2.9c0-0.9,0.1-1.9,0.2-2.8c-0.3,0.9-0.7,1.8-1.2,2.8s-1.2,2.1-2.2,3.6
			l-17.8,27.7L202.6,60c-0.2-0.6-0.5-1.4-0.8-2.4c-0.3-1-0.7-2.3-1.2-4c-0.1,1.4-0.6,3.6-1.4,6.6l0,0.1l-7.4,25.3h-7.9L200.1,34
			l12,32c0.6,1.6,1.1,2.9,1.5,4.1c0.4,1.1,0.7,2.3,1,3.4c0.6-1.3,1.2-2.6,1.9-3.8c0.7-1.3,1.4-2.5,2.2-3.8L239.6,34l2.3,51.6h-7.7
			L233.8,60.4z"/>
	</g>
	<g>
		<path class="st5" d="M246.4,85.6l6.5-49.5h7.9l-6.6,49.5H246.4z"/>
	</g>
	<g>
		<path class="st5" d="M259.6,77.1l5.4-4.5c1.4,2.7,2.8,4.7,4.4,5.9c1.6,1.2,3.4,1.8,5.5,1.8c2.6,0,4.7-0.8,6.4-2.3
			c1.6-1.5,2.4-3.5,2.4-6c0-1.7-0.4-3.2-1.3-4.4c-0.9-1.2-2.4-2.4-4.5-3.7c-0.5-0.3-1.1-0.7-2-1.1c-3.7-2-6.2-3.8-7.5-5.2
			c-0.9-1-1.6-2.2-2.1-3.5c-0.5-1.3-0.7-2.8-0.7-4.3c0-4.3,1.4-7.9,4.2-10.6c2.8-2.7,6.4-4.1,10.9-4.1c3,0,5.7,0.6,8,1.9
			c2.3,1.2,4.2,3.1,5.7,5.5l-4.7,4.4c-1.1-1.8-2.3-3.1-3.7-4c-1.4-0.9-2.9-1.3-4.5-1.3c-2.4,0-4.4,0.7-5.9,2.1
			c-1.5,1.4-2.3,3.3-2.3,5.5c0,2.7,2.2,5.2,6.5,7.6c1.1,0.6,1.9,1,2.5,1.4c3.3,1.9,5.7,3.9,7.1,6c1.4,2.1,2.1,4.6,2.1,7.7
			c0,4.7-1.5,8.4-4.5,11.2c-3,2.8-7.1,4.1-12.3,4.1c-3.5,0-6.5-0.8-9-2.4C263.2,82.9,261.2,80.4,259.6,77.1z"/>
	</g>
	<g>
		<path class="st5" d="M293.4,77.1l5.4-4.5c1.4,2.7,2.8,4.7,4.4,5.9c1.6,1.2,3.4,1.8,5.5,1.8c2.6,0,4.7-0.8,6.4-2.3
			c1.6-1.5,2.4-3.5,2.4-6c0-1.7-0.4-3.2-1.3-4.4c-0.9-1.2-2.4-2.4-4.5-3.7c-0.5-0.3-1.1-0.7-2-1.1c-3.7-2-6.2-3.8-7.5-5.2
			c-0.9-1-1.6-2.2-2.1-3.5c-0.5-1.3-0.7-2.8-0.7-4.3c0-4.3,1.4-7.9,4.2-10.6c2.8-2.7,6.4-4.1,10.9-4.1c3,0,5.7,0.6,8,1.9
			c2.3,1.2,4.2,3.1,5.7,5.5l-4.7,4.4c-1.1-1.8-2.3-3.1-3.7-4c-1.4-0.9-2.9-1.3-4.5-1.3c-2.4,0-4.4,0.7-5.9,2.1
			c-1.5,1.4-2.3,3.3-2.3,5.5c0,2.7,2.2,5.2,6.5,7.6c1.1,0.6,1.9,1,2.5,1.4c3.3,1.9,5.7,3.9,7.1,6c1.4,2.1,2.1,4.6,2.1,7.7
			c0,4.7-1.5,8.4-4.5,11.2c-3,2.8-7.1,4.1-12.3,4.1c-3.5,0-6.5-0.8-9-2.4C296.9,82.9,294.9,80.4,293.4,77.1z"/>
	</g>
</g>
</svg>
