<?xml version="1.0" encoding="utf-8"?>
<!-- Generator: Adobe Illustrator 28.1.0, SVG Export Plug-In . SVG Version: 6.00 Build 0)  -->
<svg version="1.1" id="레이어_1" xmlns="http://www.w3.org/2000/svg" xmlns:xlink="http://www.w3.org/1999/xlink" x="0px"
	 y="0px" viewBox="0 0 512 512" style="enable-background:new 0 0 512 512;" xml:space="preserve">
<style type="text/css">
	.st0{fill:#F7F7F9;}
	.st1{fill:none;stroke:#3C70BA;stroke-width:30;stroke-linecap:round;stroke-linejoin:round;stroke-miterlimit:10;}
	.st2{fill:none;stroke:#BC3B3B;stroke-width:30;stroke-linecap:round;stroke-linejoin:round;stroke-miterlimit:10;}
	.st3{fill:none;stroke:#FFCE00;stroke-width:30;stroke-linecap:round;stroke-linejoin:round;stroke-miterlimit:10;}
	.st4{fill:#19191E;}
</style>
<rect class="st0" width="512" height="512"/>
<g>
	<circle class="st1" cx="189.3" cy="256" r="129.2"/>
	<circle class="st2" cx="256" cy="256" r="129.2"/>
	<circle class="st3" cx="322.7" cy="256" r="129.2"/>
</g>
<g>
	<path class="st4" d="M115,260.4v-1.9c0-1.6,0-3.1,0.1-4.5c0.1-1.5,0.2-2.9,0.3-4.4c-0.5,1.4-1.1,2.9-1.9,4.4s-2,3.4-3.5,5.6
		l-28,43.6l-16.1-43.5c-0.4-1-0.8-2.2-1.3-3.7s-1.1-3.6-1.9-6.4c-0.1,2.2-0.9,5.6-2.2,10.3l-0.1,0.2L48.8,300H36.4L62,218.9
		l18.9,50.4c1,2.5,1.7,4.6,2.3,6.4c0.6,1.8,1.1,3.6,1.6,5.3c0.9-2,1.9-4,3-6s2.3-4,3.5-5.9l32.8-50.2l3.6,81.2h-12.1L115,260.4z"/>
	<path class="st4" d="M176.1,220.3c11.8,0,21.3,3.4,28.3,10.3c7,6.9,10.5,16.1,10.5,27.7c0,6.2-1.1,12-3.4,17.5
		c-2.3,5.5-5.5,10.2-9.8,14.3c-4.1,3.8-8.8,6.8-14.1,8.8s-11.1,3.1-17.1,3.1c-11.3,0-20.4-3.5-27.4-10.4
		c-6.9-6.9-10.4-16.1-10.4-27.4c0-6.3,1.1-12.2,3.3-17.7s5.4-10.3,9.6-14.3c4-3.8,8.6-6.7,13.9-8.8S170.3,220.3,176.1,220.3z
		 M202.7,258.6c0-8.2-2.5-14.8-7.5-19.8s-11.6-7.5-19.7-7.5c-4,0-7.9,0.8-11.6,2.3c-3.7,1.5-6.8,3.7-9.5,6.5
		c-3.1,3.2-5.5,6.8-7.1,10.9c-1.6,4.1-2.4,8.3-2.4,12.8c0,8.1,2.5,14.7,7.4,19.8c4.9,5.1,11.3,7.6,19.2,7.6c8.9,0,16.3-3.1,22.3-9.3
		C199.7,275.5,202.7,267.8,202.7,258.6z"/>
	<path class="st4" d="M238.1,222.2l-6,45.2c-0.2,1.7-0.4,3.2-0.5,4.5c-0.1,1.4-0.2,2.6-0.2,3.6c0,5,1.4,8.8,4.3,11.4
		c2.8,2.6,6.9,4,12.2,4c3.9,0,7.3-0.7,10.1-2c2.9-1.3,5.3-3.3,7.3-6c2.6-3.5,4.4-9.8,5.6-18.8c0.1-1,0.2-1.8,0.3-2.3l5.2-39.6h12.2
		l-5.7,43.8c-1,7.4-2.1,12.8-3.3,16.2c-1.2,3.3-2.8,6.3-4.9,8.8c-3,3.7-6.9,6.5-11.7,8.5c-4.8,1.9-10.2,2.9-16.4,2.9
		c-8.9,0-15.6-2.2-20.3-6.6c-4.6-4.4-7-10.8-7-19.1c0-1.8,0.2-4.4,0.5-7.7c0.3-3.3,0.7-7,1.3-11.1l4.7-35.6L238.1,222.2L238.1,222.2
		z"/>
	<path class="st4" d="M357.4,244.2c-3.4-4.4-7.2-7.7-11.4-9.8c-4.2-2.1-8.9-3.2-14.1-3.2c-4.1,0-8,0.7-11.6,2.2s-6.8,3.7-9.6,6.5
		c-3.1,3.2-5.5,6.9-7.2,11s-2.5,8.3-2.5,12.8c0,8.2,2.5,14.8,7.4,19.8c5,5,11.5,7.5,19.7,7.5c6.5,0,11.9-1.8,16.3-5.4
		s7-8.3,7.7-14.1h-20.2l1.3-11.1h33.2c0,12.9-3.5,23-10.5,30.4s-16.6,11.1-28.6,11.1c-11.6,0-21-3.5-28-10.4s-10.6-16.1-10.6-27.5
		c0-6.4,1.1-12.3,3.3-17.8c2.2-5.5,5.4-10.2,9.5-14.2c4-3.8,8.6-6.7,13.9-8.7c5.2-2,10.9-3,16.9-3c7.2,0,13.4,1.2,18.6,3.7
		c5.3,2.5,10.2,6.5,14.9,12.1L357.4,244.2z"/>
	<path class="st4" d="M368.2,300l10.2-77.9h43.7l-1.4,11h-31.6l-2.5,19.6h31.5l-1.4,10.9h-31.6l-3.2,25.2h31.6L412,300L368.2,300
		L368.2,300z M400.6,214.5h-7l11.8-18.6h11.3L400.6,214.5z"/>
	<path class="st4" d="M420.1,300l10.2-77.9H474l-1.4,11H441l-2.5,19.6H470l-1.4,10.9H437l-3.2,25.2h31.6l-1.5,11.2L420.1,300
		L420.1,300z"/>
</g>
<g>
	<g>
		<path class="st4" d="M170.5,475.6l2.2-17.2h3.6c1.9,0,3.3,0.1,4.2,0.4s1.7,0.6,2.5,1.2c0.9,0.7,1.6,1.6,2.1,2.7s0.7,2.3,0.7,3.7
			c0,1.2-0.2,2.4-0.6,3.5s-0.9,2.1-1.7,2.9c-0.5,0.6-1.1,1.1-1.7,1.5s-1.3,0.7-2.1,0.9c-0.5,0.1-1,0.2-1.6,0.3s-1.3,0.1-2.1,0.1
			h-1.7H170.5z M173.5,473.1h1c1.9,0,3.3-0.1,4.1-0.3s1.5-0.5,2.1-0.9c0.8-0.6,1.4-1.3,1.8-2.3s0.7-2,0.7-3.1c0-1-0.2-1.9-0.5-2.7
			s-0.9-1.4-1.5-1.9c-0.5-0.4-1.1-0.7-1.7-0.8s-1.7-0.2-3.2-0.2h-1.1L173.5,473.1z"/>
		<path class="st4" d="M194.7,472.2l1.8,1.4c-0.6,0.9-1.4,1.5-2.1,1.9s-1.6,0.6-2.6,0.6c-1.6,0-3-0.5-4-1.5s-1.5-2.3-1.5-3.9
			c0-1.9,0.6-3.5,1.8-4.7s2.7-1.8,4.5-1.8c1.5,0,2.7,0.5,3.6,1.4s1.3,2.2,1.3,3.8c0,0.1,0,0.3,0,0.5s0,0.5-0.1,0.7h-8.5
			c0,1,0.3,1.8,0.8,2.4s1.2,0.9,2,0.9c0.6,0,1.1-0.1,1.7-0.4S194.4,472.7,194.7,472.2z M189.1,468.7h5.7c0-0.8-0.3-1.3-0.7-1.8
			s-1-0.7-1.8-0.7s-1.6,0.2-2.1,0.7S189.3,468,189.1,468.7z"/>
		<path class="st4" d="M212.3,475.6l0.8-6.4c0-0.1,0-0.3,0.1-0.4s0-0.3,0-0.4c0-0.7-0.2-1.3-0.5-1.7s-0.8-0.6-1.3-0.6
			c-0.9,0-1.6,0.3-2.1,1s-0.8,1.7-1,3.1l-0.7,5.5H205l0.8-6.4c0-0.2,0-0.4,0-0.5s0-0.2,0-0.3c0-0.8-0.2-1.4-0.5-1.8
			s-0.8-0.6-1.4-0.6c-0.9,0-1.5,0.3-2,1s-0.8,1.7-1,3.1l-0.7,5.5h-2.5l1.5-11.1h2.5l-0.4,1.3c0.6-0.6,1.2-1,1.8-1.3s1.3-0.4,2-0.4
			c0.8,0,1.5,0.2,2,0.5s0.9,0.9,1.2,1.6c0.7-0.7,1.3-1.2,2-1.6s1.4-0.5,2.2-0.5c1.1,0,1.9,0.3,2.5,0.9s0.9,1.5,0.9,2.6
			c0,0.2,0,0.5,0,0.8s-0.1,0.7-0.1,1.3l-0.8,5.9h-2.7V475.6z"/>
		<path class="st4" d="M222.9,464.1c1.7,0,3.1,0.5,4.1,1.5s1.5,2.4,1.5,4c0,1.9-0.6,3.4-1.8,4.6s-2.8,1.8-4.7,1.8
			c-1.7,0-3.1-0.5-4.1-1.5s-1.5-2.3-1.5-4c0-1.9,0.6-3.5,1.8-4.7S221,464.1,222.9,464.1z M223,466.3c-1.1,0-2,0.4-2.7,1.2
			s-1.1,1.8-1.1,3.1c0,1,0.3,1.8,0.8,2.4s1.3,0.9,2.2,0.9c1.2,0,2.1-0.4,2.8-1.1s1-1.8,1-3.1c0-1-0.3-1.8-0.8-2.4
			S223.9,466.3,223,466.3z"/>
		<path class="st4" d="M234.3,472.6l1.9-1.6c0.5,0.9,1,1.6,1.5,2s1.2,0.6,1.9,0.6c0.9,0,1.6-0.3,2.2-0.8s0.8-1.2,0.8-2.1
			c0-0.6-0.1-1.1-0.4-1.5s-0.8-0.8-1.6-1.3c-0.2-0.1-0.4-0.2-0.7-0.4c-1.3-0.7-2.1-1.3-2.6-1.8c-0.3-0.4-0.6-0.8-0.7-1.2
			s-0.2-1-0.2-1.5c0-1.5,0.5-2.7,1.5-3.7s2.2-1.4,3.8-1.4c1.1,0,2,0.2,2.8,0.6s1.4,1.1,2,1.9l-1.6,1.5c-0.4-0.6-0.8-1.1-1.3-1.4
			s-1-0.5-1.6-0.5c-0.8,0-1.5,0.2-2.1,0.7s-0.8,1.1-0.8,1.9c0,0.9,0.8,1.8,2.3,2.6c0.4,0.2,0.7,0.4,0.9,0.5c1.2,0.7,2,1.4,2.5,2.1
			s0.7,1.6,0.7,2.7c0,1.6-0.5,2.9-1.6,3.9s-2.5,1.4-4.3,1.4c-1.2,0-2.3-0.3-3.1-0.8S234.8,473.8,234.3,472.6z"/>
		<path class="st4" d="M252.4,464.1c1.7,0,3.1,0.5,4.1,1.5s1.5,2.4,1.5,4c0,1.9-0.6,3.4-1.8,4.6c-1.2,1.2-2.8,1.8-4.7,1.8
			c-1.7,0-3.1-0.5-4.1-1.5s-1.5-2.3-1.5-4c0-1.9,0.6-3.5,1.8-4.7S250.6,464.1,252.4,464.1z M252.5,466.3c-1.1,0-2,0.4-2.7,1.2
			s-1.1,1.8-1.1,3.1c0,1,0.3,1.8,0.8,2.4s1.3,0.9,2.2,0.9c1.2,0,2.1-0.4,2.8-1.1s1-1.8,1-3.1c0-1-0.3-1.8-0.8-2.4
			S253.4,466.3,252.5,466.3z"/>
		<path class="st4" d="M259.8,464.5h2.5l-0.6,4.7c0,0.1,0,0.2-0.1,0.4c-0.1,1-0.2,1.7-0.2,2c0,0.7,0.2,1.3,0.6,1.7s1,0.6,1.7,0.6
			c1,0,1.8-0.3,2.3-0.8s0.8-1.6,1-3.3l0.7-5.2h2.5l-0.8,5.6c-0.2,1.5-0.4,2.5-0.7,3.1s-0.6,1.1-1,1.5c-0.5,0.4-1.1,0.8-1.8,1
			s-1.5,0.3-2.4,0.3c-1.6,0-2.7-0.4-3.5-1.1s-1.2-1.8-1.2-3.1c0-0.4,0.1-1.1,0.2-2.2l0,0L259.8,464.5z"/>
		<path class="st4" d="M278.5,475.6l0.8-6.4c0-0.1,0-0.2,0-0.4s0-0.3,0-0.6c0-0.7-0.2-1.3-0.5-1.7s-0.9-0.6-1.5-0.6
			c-1,0-1.9,0.3-2.5,1s-1,1.7-1.2,3.1l-0.7,5.4h-2.5l1.5-11.1h2.4l-0.2,1.3c0.6-0.6,1.3-1,2-1.3s1.4-0.4,2.2-0.4
			c1.1,0,2,0.3,2.7,0.9s1,1.4,1,2.5c0,0.3,0,0.6,0,1s-0.1,0.8-0.1,1.3l-0.8,5.9h-2.6V475.6z"/>
		<path class="st4" d="M293.3,475.6h-2.5l0.1-1.1c-0.5,0.5-1,0.9-1.6,1.2s-1.2,0.4-1.9,0.4c-1.5,0-2.6-0.5-3.4-1.4s-1.2-2.2-1.2-3.9
			c0-2,0.5-3.6,1.5-4.8s2.2-1.8,3.8-1.8c0.8,0,1.5,0.2,2.1,0.5s1.2,0.8,1.7,1.4l1.1-8.6h2.5L293.3,475.6z M285.5,470.4
			c0,1.1,0.2,1.9,0.7,2.5s1.2,0.9,2.1,0.9c1,0,1.8-0.4,2.4-1.2s0.9-1.9,0.9-3.4c0-1-0.3-1.7-0.8-2.3s-1.2-0.8-2.1-0.8
			c-1,0-1.7,0.4-2.3,1.2S285.5,469.1,285.5,470.4z"/>
		<path class="st4" d="M295.6,475.6l1.2-9h-1.9l0.3-2.2h1.9l0.6-4.2h2.5l-0.5,4.2h2l-0.3,2.2h-2l-1.2,9H295.6z"/>
		<path class="st4" d="M308.4,466.7c-0.2-0.1-0.4-0.2-0.6-0.3s-0.4-0.1-0.6-0.1c-0.9,0-1.6,0.3-2.1,1s-0.9,1.7-1,3.1l-0.7,5.2h-2.5
			l1.5-11.1h2.4l-0.2,1.4c0.4-0.6,0.9-1.1,1.4-1.4s1.1-0.5,1.7-0.5c0.3,0,0.5,0,0.8,0.1s0.5,0.2,0.8,0.3L308.4,466.7z"/>
		<path class="st4" d="M318.5,475.6H316l0.2-1.2c-0.4,0.6-0.9,1-1.5,1.2s-1.2,0.4-2,0.4c-1.5,0-2.6-0.5-3.4-1.4s-1.2-2.2-1.2-3.9
			c0-2,0.5-3.6,1.5-4.8s2.2-1.8,3.8-1.8c0.7,0,1.4,0.2,2.1,0.5s1.2,0.8,1.8,1.4l0.2-1.5h2.5L318.5,475.6z M310.7,470.4
			c0,1.1,0.2,1.9,0.7,2.5s1.2,0.9,2.1,0.9c1,0,1.8-0.4,2.4-1.2s0.9-1.9,0.9-3.3c0-1-0.3-1.7-0.8-2.3s-1.2-0.8-2.1-0.8
			c-1,0-1.7,0.4-2.3,1.2S310.7,469.1,310.7,470.4z"/>
		<path class="st4" d="M330,467.6c-0.5-0.4-1-0.8-1.6-1s-1.1-0.3-1.7-0.3c-1.1,0-2.1,0.4-2.8,1.2s-1.1,1.8-1.1,3.1
			c0,1,0.3,1.8,0.8,2.4s1.3,0.9,2.2,0.9c0.6,0,1.1-0.1,1.7-0.3s1.2-0.5,1.8-0.9l-0.5,2.7c-0.5,0.2-0.9,0.4-1.5,0.5s-1,0.2-1.6,0.2
			c-1.7,0-3-0.5-4-1.5s-1.5-2.3-1.5-3.9c0-1.9,0.6-3.5,1.8-4.7s2.8-1.8,4.7-1.8c0.7,0,1.4,0.1,2,0.3s1.2,0.5,1.8,0.9L330,467.6z"/>
		<path class="st4" d="M330.3,475.6l2.4-18.2h2.5l-1.6,11.8l5.6-4.7h3.3l-6.1,5.1l4.7,6h-3l-4.6-5.9l-0.8,5.9L330.3,475.6
			L330.3,475.6z"/>
	</g>
</g>
</svg>
