<?xml version="1.0" encoding="utf-8"?>
<!-- Generator: Adobe Illustrator 28.1.0, SVG Export Plug-In . SVG Version: 6.00 Build 0)  -->
<svg version="1.1" id="레이어_1" xmlns="http://www.w3.org/2000/svg" xmlns:xlink="http://www.w3.org/1999/xlink" x="0px"
	 y="0px" viewBox="0 0 3840 3840" style="enable-background:new 0 0 3840 3840;" xml:space="preserve">
<style type="text/css">
	.st0{fill:#0C0C0C;}
	.st1{fill:#BC3B3B;}
	.st2{fill:#3C70BA;}
	.st3{fill:#FFCE00;}
	.st4{fill:#F7F7F9;}
</style>
<rect class="st0" width="3840" height="3840"/>
<path class="st1" d="M1676.2,1875.7c-18.5,48.7-37.2,97.1-55.9,145.6c-3.1,7.9-6.2,15.9-9.2,23.8c-12.2,31.4-24.3,62.9-36.2,94.4
	c-4.8,12.3-9.5,24.6-14.2,36.9c-8.3-2.4-16.6-4.9-24.9-7.4c-22.7-6.9-45-14.2-67.1-22.2c-7.9-2.8-15.7-5.6-23.5-8.5
	c-73.8-27.7-144.9-60.8-212.9-98.9c-24.2-13.5-47.9-27.7-71.2-42.5c-18.1-11.4-35.9-23.2-53.4-35.4c-13.3-9.1-26.4-18.6-39.4-28.2
	c-28.4-21-56-43-82.9-65.9c-0.1,0-0.1-0.1-0.2-0.1c-332-282.9-542.9-703.9-542.9-1172.9c0-175.6,29.6-344.4,83.9-501.7
	C549.3,126.4,576.7,62,608.1,0h372.6c-57.2,82.5-104.6,172.3-140.3,267.8c-49.8,132.8-77,276.6-77,426.7
	c0,378.1,172.4,716.5,443,940.4c108.4,89.9,232.4,161.2,367.5,209.3c21.3,7.7,42.9,14.7,64.7,21.1
	C1651.1,1869,1663.7,1872.4,1676.2,1875.7z"/>
<path class="st2" d="M1804.5,2700.7c-106,141.9-232.4,267.8-374.8,373.4c-115.4,85.7-241.3,157.9-375.4,214.6
	c-216.2,91.2-453.6,141.8-702.6,141.8c-120.3,0-238-11.8-351.8-34.3v-386.6c112.6,28.5,230.4,43.6,351.8,43.6
	c219.1,0,427.1-49.4,613.1-137.5c150.6-71.3,286.9-168.1,403.1-284.7c48.4-48.4,93.2-100.4,134.2-155.3
	C1587.8,2570.2,1692,2645.2,1804.5,2700.7z"/>
<g>
	<path class="st3" d="M3524.8,673.4c-104.8-29.4-212.9-50.5-323.7-62.7c-73.4-8.1-148-12.2-223.6-12.2
		c-356.3,0-691.6,92.2-983.2,254.2c-112.2,62.2-218,134.8-315.9,216.5c-189.5,157.9-349.9,349.5-472,565.6
		c-41.8,73.8-79,150.4-111.3,229.6c-9.4,22.7-18.2,45.8-26.8,68.9c-27.3,74.5-50.3,151-68.8,229.2C963.8,2313.1,945,2469.9,945,2631
		c0,96.6,6.8,191.6,19.9,284.7c18.1,128.6,48.3,253.3,89.5,373c68.4,199.5,167,385.1,290.5,551.2h570.1
		c-91.4-80.5-173.6-171.2-244.9-270.2c-4-5.6-8-11.2-12-16.9c-4.7-6.7-9.4-13.4-13.9-20.2c-5.7-8.3-11.2-16.8-16.7-25.3
		c-86.1-132.3-153.2-277.9-197.6-433.2c-40.2-140.6-61.7-289.1-61.7-442.4v-0.8c0.1-171.7,27.1-337.3,77.2-492.5
		c3.4-10.8,7-21.4,10.7-32.1c12.2-35.5,25.7-70.4,40.3-104.7c23-54.1,49-106.7,77.6-157.5c59.5-105.8,130.7-204.2,211.7-293.4
		c100.5-110.8,216.2-207.5,343.8-286.8c246.4-153.2,537-241.7,848-241.7c60.6,0,120.4,3.4,179.3,9.9
		c108.4,12.1,213.6,34.9,314.4,67.4c131.1,42.3,254.8,101,368.8,173.6V790.8C3739.2,743.3,3633.8,703.9,3524.8,673.4z"/>
</g>
<g>
	<path class="st4" d="M1388.2,3470.2c-3.8-8.3-9-15-15.7-20.2c-6-4.5-12-6.8-18.8-9c-6.8-2.2-17.2-3-31.5-3h-27l-16.5,129h41.2
		c6,0,11.2,0,15.7-0.7c4.5-0.7,8.3-1.5,12-2.2c6-1.5,11.2-3.8,15.7-6.8c4.5-3,9-6.7,12.8-11.2c6-6,9.7-13.5,12.8-21.7
		c3-8.3,4.5-15.8,4.5-26.2C1393.5,3487.5,1392,3478.5,1388.2,3470.2z M1368.8,3522c-3,7.5-7.5,12.8-13.5,17.3
		c-4.5,3-9.7,5.2-15.8,6.7c-6,1.5-16.5,2.2-30.7,2.2h-7.5l12.8-91.5h8.2c11.2,0,19.5,0.7,24,1.5c4.5,0.8,9,3,12.8,6
		c4.5,3.8,9,8.2,11.2,14.2c2.2,6,3.8,12,3.8,20.2S1371.8,3514.5,1368.8,3522z"/>
	<path class="st4" d="M1471.5,3492c-6.8-6.7-13.5-10.5-27-10.5c-13.5,0-24.7,4.5-33.8,13.5c-9,9-13.5,23.2-13.5,35.2
		c0,12,3.8,21.7,11.2,29.2s18,11.2,30,11.2c7.5,0,14.3-1.5,19.5-4.5c5.2-3,11.2-7.5,15.7-14.3l-13.5-10.5c-2.2,3.8-5.3,7.5-9.7,9.8
		c-4.5,2.2-6.8,3-12.8,3s-11.2-2.3-15-6.8s-6-10.5-6-18h63.8c0.7-1.5,0.7-3.8,0.7-5.2v-3.8C1481.2,3508.5,1478.2,3498.8,1471.5,3492
		z M1418.2,3515.2c1.5-5.2,4.5-9.7,8.3-13.5s9.7-5.3,15.7-5.3s10.5,1.5,13.5,5.3c3,3.8,5.3,7.5,5.3,13.5H1418.2z"/>
	<path class="st4" d="M1592.2,3567l6-48c0-0.8,0-2.2,0.8-3c0.8-0.8,0-2.2,0-3c0-5.3-1.5-9.8-3.8-12.8c-2.2-3-6-4.5-9.8-4.5
		c-6.8,0-12,2.2-15.8,7.5c-3.8,5.3-6,12.8-7.5,23.2l-5.2,41.2h-19.5l6-48v-6c0-6-1.5-10.5-3.8-13.5c-2.2-3-6-4.5-10.5-4.5
		c-6.8,0-11.2,2.2-15,7.5c-3.8,5.3-6,12.8-7.5,23.2l-5.2,41.2h-18.8l11.2-83.2h18.8l-3,9.8c4.5-4.5,9-7.5,13.5-9.8
		c4.5-2.2,9.8-3,15-3c5.2,0,11.2,1.5,15,3.8c3.8,2.2,6.8,6.8,9,12c5.2-5.3,9.8-9,15-12c5.2-3,10.5-3.8,16.5-3.8s14.2,2.2,18.8,6.8
		s6.8,11.2,6.8,19.5v6c0,2.2-0.8,5.2-0.8,9.8l-6,44.2h-20.2V3567z"/>
	<path class="st4" d="M1702.5,3492c-7.5-7.5-18-11.2-30.7-11.2c-14.3,0-26.2,3.8-35.3,12.8c-3.9,3.9-7,8.7-9.2,13.9
		c-2.9,6.7-4.3,14.2-4.3,21.4c0,12.8,3.8,22.5,11.2,30s16.5,11.2,30.7,11.2c1.7,0,3.4-0.1,5-0.2c12.1-0.9,22.3-5.3,30.2-13.3
		c9-9,13.5-22.5,13.5-34.5C1713.8,3510,1710,3499.5,1702.5,3492z M1687.5,3546c-5.3,5.2-14.3,8.3-21,8.3c-3,0-5.9-0.4-8.5-1.4
		c-3.2-1.1-5.9-2.9-8-5.4c-3.3-4-5.5-7.3-5.9-14.8c-0.1-1-0.1-2-0.1-3.2c0-9.7,3-17.2,8.2-23.2s12-9,20.3-9c6.8,0,12.8,3,16.5,7.5
		c3.8,4.5,6,8.3,6,18C1695,3532.5,1692.8,3540.7,1687.5,3546z"/>
	<path class="st4" d="M1757.2,3544.5l14.2-12c3.8,6.8,7.5,12,11.2,15s9,4.5,14.2,4.5c5.2,0,12-2.2,16.5-6c4.5-3.8,6-9,6-15.8
		c0-6.7-0.8-8.2-3-11.2c-2.2-3-6-6-12-9.7c-1.5-0.8-3-1.5-5.2-3c-9.8-5.2-15.8-9.8-19.5-13.5c-2.2-3-4.5-6-5.2-9
		c-0.7-3-1.5-7.5-1.5-11.2c0-11.2,3.8-20.2,11.2-27.8s16.5-10.5,28.5-10.5c12,0,15,1.5,21,4.5s10.5,8.2,15,14.2l-12,11.2
		c-3-4.5-6-8.2-9.8-10.5s-7.5-3.8-12-3.8s-11.2,1.5-15.8,5.2c-4.5,3.8-6,8.3-6,14.2c0,6,6,13.5,17.3,19.5c3,1.5,5.2,3,6.7,3.8
		c9,5.3,15,10.5,18.8,15.8c3.8,5.2,5.2,12,5.2,20.2c0,12-3.8,21.8-12,29.2c-8.3,7.5-18.8,10.5-32.2,10.5c-13.5,0-17.3-2.2-23.3-6
		S1761,3553.5,1757.2,3544.5L1757.2,3544.5z"/>
	<path class="st4" d="M1923.8,3492c-7.5-7.5-18-11.2-30.7-11.2c-13.5,0-26.2,3.8-35.3,12.8c-9,9-13.5,22.5-13.5,35.2
		s3.8,22.5,11.2,30s16.5,11.2,30.7,11.2s26.2-4.5,35.3-13.5c9-9,13.5-22.5,13.5-34.5C1935,3510,1931.2,3499.5,1923.8,3492z
		 M1908.8,3546c-5.3,5.2-14.3,8.3-21,8.3c-6.8,0-12.8-2.3-16.5-6.8s-6-8.2-6-18c0-9.7,3-17.2,8.2-23.2s12-9,20.3-9
		c6.8,0,12.8,3,16.5,7.5c3.8,4.5,6,8.3,6,18C1916.2,3532.5,1914,3540.7,1908.8,3546z"/>
	<path class="st4" d="M1948.5,3483.8h18.8l-4.5,35.2c0,0.8,0,1.5-0.8,3c-0.8,7.5-1.5,12.8-1.5,15c0,5.3,1.5,9.8,4.5,12.8
		c3,3,7.5,4.5,12.8,4.5c7.5,0,13.5-2.2,17.2-6s6-12,7.5-24.7l5.3-39h18.8l-6,42c-1.5,11.2-3,18.8-5.3,23.3
		c-2.3,4.5-4.5,8.2-7.5,11.2c-3.8,3-8.3,6-13.5,7.5c-5.2,1.5-11.2,2.2-18,2.2c-12,0-20.3-3-26.2-8.2s-9-13.5-9-23.2
		c0-9.8,0.8-8.2,1.5-16.5l0,0L1948.5,3483.8z"/>
	<path class="st4" d="M2088.8,3567l6-48v-7.5c0-5.2-1.5-9.7-3.8-12.8c-2.2-3-6.8-4.5-11.2-4.5c-7.5,0-14.2,2.2-18.8,7.5
		c-4.5,5.2-7.5,12.8-9,23.2l-5.2,40.5H2028l11.2-83.2h18l-1.5,9.7c4.5-4.5,9.8-7.5,15-9.7c5.3-2.2,10.5-3,16.5-3
		c6,0,15,2.2,20.2,6.8c5.2,4.5,7.5,10.5,7.5,18.8v7.5c0,3-0.8,6-0.8,9.7l-6,44.2h-19.5L2088.8,3567z"/>
	<path class="st4" d="M2197.5,3431.2l-8.2,64.5c-3.8-4.5-8.3-8.2-12.8-10.5c-4.5-2.2-3.8-3.8-15.8-3.8c-12,0-21,4.5-28.5,13.5
		s-11.2,23.2-11.2,36c0,12.8,3,22.5,9,29.2c6,6.7,14.3,10.5,25.5,10.5c5.2,0,9.7-0.7,14.2-3c4.5-2.2,8.3-5.2,11.2-9v8.2h18.8
		l16.5-135.7H2197.5z M2180.2,3544.5c-4.5,6-11.2,9-18,9c-6.7,0-12-2.2-15.8-6.7c-3.8-4.5-5.2-10.5-5.2-18.8
		c0-9.8,2.2-17.3,6.8-23.3c4.5-6,10.5-9,17.2-9c6.7,0,12,1.5,15.8,6c3.8,4.5,6,6,6,17.2S2184.8,3538.5,2180.2,3544.5z"/>
	<path class="st4" d="M2217,3567l9-67.5h-14.2l2.2-16.5h14.2l4.5-31.5h18.8l-3.8,31.5h15l-2.2,16.5h-15l-9,67.5H2217z"/>
	<path class="st4" d="M2313,3500.2c-1.5-0.8-3-1.5-4.5-2.2c-1.5-0.7-3-0.8-4.5-0.8c-6.7,0-12,2.2-15.8,7.5
		c-3.8,5.2-6.8,12.8-7.5,23.2l-5.2,39h-18.8l11.2-83.2h18l-1.5,10.5c3-4.5,6.8-8.2,10.5-10.5s8.2-3.8,12.8-3.8c4.5,0,3.8,0,6,0.8
		s3.8,1.5,6,2.2L2313,3500.2L2313,3500.2z"/>
	<path class="st4" d="M2381.2,3483.8l-1.5,11.2c-4.5-4.5-8.2-8.2-13.5-10.5c-5.2-2.2-3.8-3.8-15.7-3.8c-12,0-21,4.5-28.5,13.5
		c-7.5,9-11.2,23.2-11.2,36c0,12.8,3,22.5,9,29.2c6,6.8,14.2,10.5,25.5,10.5c6,0,10.5-1.5,15-3c4.5-1.5,8.2-4.5,11.2-9l-1.5,9h18.8
		l11.2-83.2H2381.2z M2369.3,3544.5c-4.5,6-11.2,9-18,9s-12-2.2-15.7-6.7c-3.8-4.5-5.3-10.5-5.3-18.8c0-9.8,2.2-16.5,6.7-22.5
		c4.5-6,10.5-9,17.3-9c6.7,0,12,1.5,15.7,6s6,6.8,6,17.2C2376,3530.2,2373.8,3538.5,2369.3,3544.5z"/>
	<path class="st4" d="M2475,3507c-3.8-3-7.5-6-12-7.5c-4.5-1.5-8.2-2.2-12.8-2.2c-8.2,0-15.8,3-21,9c-5.2,6-8.2,13.5-8.2,23.2
		c0,9.8,2.2,13.5,6,18s9.8,6.8,16.5,6.8c6.8,0,8.2-0.8,12.8-2.2c4.5-1.5,9-3.8,13.5-6.8l-3.8,20.3c-3.8,1.5-6.8,3-11.2,3.8
		c-4.5,0.8-7.5,1.5-12,1.5c-12.8,0-22.5-3.8-30-11.2s-11.2-17.2-11.2-29.2s4.5-26.2,13.5-35.2s21-13.5,35.2-13.5
		c14.3,0,10.5,0.8,15,2.2c4.5,1.5,9,3.8,13.5,6.8L2475,3507L2475,3507z"/>
	<path class="st4" d="M2477.2,3567l18-136.5h18.8l-12,88.5l42-35.2h24.8L2523,3522l35.2,45h-22.5l-34.5-44.2l-6,44.2L2477.2,3567
		L2477.2,3567z"/>
</g>
<path class="st2" d="M2164.5,1618.5c0,48.9-1.9,97.4-5.8,145.4v0.2c-3.8,47.6-9.5,94.7-17,141.2c-0.5,3.5-1.1,7.1-1.7,10.7l-0.1,0.3
	c-15.8,94.6-38.9,186.8-68.8,276c-4.7,14.2-9.7,28.4-14.9,42.5c-61.1,168.3-146.5,325.1-251.8,466c-112.5-56.2-216-130.5-302.2-225
	c63.2-84.4,117.2-175.9,160.7-273.1c12.8-28.4,24.5-57.3,35.3-86.7c26.5-71.1,47.3-144.8,62.2-220.7l2.9-15.3
	c15.7-85,23.8-172.6,23.8-262.1c0-22.4-0.5-44.8-1.6-67c-7.8-169.9-45.2-332.1-107.3-481.6c-153.8-371-458.8-663.9-838-801.4
	c-100-36.3-205.1-61.8-314-75c-57.3-7-115.6-10.6-174.7-10.6c-121.3,0-239.2,15.1-351.8,43.5V0h1168.6
	c361.3,183.5,653.6,484.6,825.7,852.7c60.7,129.5,106.4,267.4,135.2,411.3c22.1,110.9,34.1,225.4,35,342.5
	C2164.5,1610.5,2164.5,1614.5,2164.5,1618.5z"/>
<path class="st1" d="M3525,695.3c0,139.9-18.8,275.4-53.8,404.3c-80.6,296.3-247.7,557.5-472.3,754.5
	c-35.6,31.3-72.8,60.9-111.2,88.8c-14.6,10.6-29.3,20.9-44.2,30.9c-26.3,17.8-53.2,34.7-80.6,50.9c-43.4,25.6-88.1,49-134.1,70.3
	c-23.2,10.8-46.8,21-70.6,30.6c-32.6,13.1-65.9,25.2-99.5,36.1c-46.6,15.1-94.1,28.1-142.6,38.8c-84.2,18.6-171,30.2-259.7,34.3
	c-24.1,1.1-48.2,1.7-72.5,1.7c-110.2,0-217.4-11.8-320.8-33.9c-34.5-7.3-68.6-15.7-102.2-25.3c4.7-12.6,9.4-25.1,14.2-37.6
	c11.9-31.5,24-63,36.2-94.4c3.1-7.9,6.2-15.9,9.2-23.8c18.7-48.2,37.4-96.4,55.9-144.8c10.8,2.8,21.7,5.5,32.6,7.9
	c12.4,2.9,25,5.5,37.6,8c4.6,1,9.3,1.9,14,2.7c71.9,13.3,145.9,20.2,221.9,20.3h1.4c26.9,0,53.6-0.9,80.1-2.6
	c26-1.6,51.8-4.2,77.4-7.5c0.2,0,0.3,0,0.4-0.1c31.1-4,61.7-9.1,92-15.5h0.1c44-9.1,87.1-20.7,129.2-34.5h0.1
	c382.3-125.3,682.1-434.6,793.7-823.1c30.7-107,47.2-220,47.2-336.9c0-28.4-1-56.6-2.9-84.5c-15.4-226-92.5-435.1-214.5-610.7h372.7
	c102.9,202.8,162.2,431.4,165.5,673.4C3524.9,680.7,3525,688,3525,695.3z"/>
<g>
	<path class="st4" d="M678,1605.8l44.2,585.8h-75.8l-24-341.2l-207,378.8l-114.7-378.7l-106.5,341.2h-81l185.3-573l135.7,437.2
		L678,1605.8L678,1605.8z"/>
	<path class="st4" d="M1118.2,1864.5h-76.5l-5.3,42.8c-17.2-18.8-34.5-32.2-51-39.7c-0.1,0-0.1-0.1-0.2-0.1
		c-15.5-7.4-9.7-11.2-59.1-11.2c-49.5,0-90,17.2-121.5,51.8c-30.7,34.5-46.5,86.2-46.5,132.7c0,46.5,14.3,84.8,41.2,114
		c27,29.2,70.5,44.2,105.8,44.2c32.5,0,63.8-12.1,94.3-36.4c2.6-2,5.2-4.1,7.7-6.4l-4.5,35.2h76.5l28.5-229.9l12-96.4L1118.2,1864.5
		z M995.3,2101.5c-21,23.2-48,34.5-73.5,34.5c-25.5,0-45.8-9.8-62.3-27.8c-15.7-18.8-24-37.5-24-70.5c0-33,9.7-60.8,29.2-83.3
		c19.5-22.5,45.8-33.8,72-33.8s48,9.8,64.5,27.8c16.5,18,24.7,41.2,24.7,70.5C1026,2050.5,1015.5,2078.2,995.3,2101.5z"/>
	<path class="st4" d="M1254,1865.2l-3.8,27.8c26.2-24.8,51.7-36.8,78-36.8s44.2,8.2,63,25.5l-48.8,63c-14.2-12-28.5-18-42-18
		c-13.5,0-18,2.2-25.5,6s-13.5,9.7-19.5,18c-5.2,8.3-9.8,18.8-13.5,31.5s-6.7,28.5-8.2,46.5l-20.2,162.8H1137l40.5-326.2
		L1254,1865.2L1254,1865.2z"/>
	<path class="st4" d="M1720.5,1865.2l-224.2,369l-116.2-369h79.5l56.2,208.5l117-208.5H1720.5L1720.5,1865.2z"/>
	<path class="st4" d="M1982.3,1915.5c-3.5-5-7.3-9.8-11.3-14.3c-27.8-31.5-64.5-47.2-114.7-47.2c-35.3,0-66.2,8.6-92.9,25.9
		c-5.8,3.8-11.5,7.9-16.9,12.6c-5.1,4.3-10,9-14.7,14c-33,35.3-49.5,81.7-49.5,131.2c0,29.5,5.3,55.6,16.1,78.1
		c7.2,15.3,16.9,29,28.9,41.1c30,30,70.5,45,120.8,45c31.5,0,58.5-6,79.5-16.5c21-10.5,41.2-29.3,61.5-56.2l-57-31.5
		c-19.5,27-56.2,40.5-82.5,40.5s-48-7.5-64.5-23.2s-24.7-35.2-24.7-59.3H2013c0.7-12.7,0.7,26.2,0.7-27
		C2013.8,1983.1,2003.3,1945.2,1982.3,1915.5z M1765.5,1994.3c13.5-50.3,40.5-75.8,87.7-75.8c47.3,0,75,25.5,83.3,75.8H1765.5z"/>
	<path class="st4" d="M2178,1606.5l-72,585.8h-76.5l72-585.8L2178,1606.5L2178,1606.5z"/>
	<path class="st4" d="M2474.3,1902.8c-29.7-29-65.6-44.7-111.2-47.5h-0.1c-5-0.4-10.1-0.5-15.4-0.5c-44.5,0-82.1,11.5-113.8,35h-0.1
		c-6.3,4.6-12.3,9.7-18.1,15.2c-35.3,33-52.5,76.5-52.5,126c0,49.5,16.5,90.8,50.2,123c27.6,26.4,63.2,41.7,102.8,46.4
		c8.8,1.1,17.8,1.6,27,1.6c44.6,0,83.3-13.6,115.6-40.3c4-3.3,8-6.9,11.9-10.6c34.5-34.5,51.7-75.8,51.7-126l1.5,0.7
		C2523.8,1975.5,2507.2,1934.3,2474.3,1902.8z M2267.2,2108.2c-18.8-19.5-28.5-45.7-28.5-78s9.8-59.3,30-80.3s46.5-31.5,76.5-31.5
		s54,9.7,72,28.5c18.8,18,27.8,42.8,27.8,74.3h-0.7c0,34.5-9.8,62.2-29.3,84c-19.5,21.7-44.3,33-74.3,33S2286,2128.5,2267.2,2108.2z
		"/>
	<path class="st4" d="M2856.8,1865.2l-23.2,189.8c-1.5,16.5-4.5,30-6.8,42c-3,12-6,21.8-9,30c-6.7,15.8-17.2,29.2-32.2,41.2
		c-26.2,20.3-60,30.8-102,30.8c-42,0-72-10.5-96-30.8c-24-21-36-48.8-36-83.2s0-11.2,0.8-18.8c0-7.5,1.5-15,2.2-24.7l21.8-176.2
		h76.5l-22.5,183c-0.8,7.5-1.5,15-2.2,21c0,6,0,10.5,0,15c0,34.5,20.2,51.8,60.8,51.8s38.2-6,48.8-17.2s17.2-31.5,21-59.2l24-193.5
		h76.5L2856.8,1865.2z"/>
	<path class="st4" d="M3104.2,1901.2l-43.5,43.5c-20.2-18-39-27.8-56.2-27.8c-17.2,0-21.8,3-29.2,9.8c-7.5,6.7-11.2,15-11.2,24.7
		s3,17.2,9.8,24c6.8,6.7,20.2,15.8,40.5,27c29.2,16.5,48.8,31.5,59.2,45c10.5,13.5,15.8,30.8,15.8,52.5c0,30.8-10.5,55.5-32.2,74.2
		s-50.2,27.8-85.5,27.8c-35.2,0-87.8-21.8-119.2-64.5l50.2-35.2c20.2,24.7,42.8,36.7,66,36.7c23.2,0,24-3.8,31.5-10.5
		c8.2-6.8,12-15.8,12-27s-3-17.2-9.7-23.2c-3-3-9-7.5-17.2-12.8c-8.2-5.3-18.8-12-33-18.8c-24.8-13.5-41.2-27-51-39.8
		c-9.7-13.5-14.2-30-14.2-50.2c0-29.2,10.5-54,32.2-73.5c21.8-19.5,49.5-29.2,82.5-29.2s71.2,15.8,102,46.5L3104.2,1901.2z"/>
	<path class="st4" d="M3546.8,1913.2l133.5,279H3597l-99.7-213l-147.8,213h-93l203.3-287.3L3342,1656.8h84l82.5,183.8l125.2-183.8
		h93.8L3546.8,1913.2L3546.8,1913.2z"/>
</g>
</svg>
