<?xml version="1.0" encoding="utf-8"?>
<!-- Generator: Adobe Illustrator 28.1.0, SVG Export Plug-In . SVG Version: 6.00 Build 0)  -->
<svg version="1.1" id="레이어_1" xmlns="http://www.w3.org/2000/svg" xmlns:xlink="http://www.w3.org/1999/xlink" x="0px"
	 y="0px" viewBox="0 0 512 512" style="enable-background:new 0 0 512 512;" xml:space="preserve">
<style type="text/css">
	.st0{fill:#0C0C0C;}
	.st1{fill:#3C70BA;}
	.st2{fill:#BC3B3B;}
	.st3{fill:#FFCE00;}
	.st4{fill:#F7F7F9;}
</style>
<rect class="st0" width="512" height="512"/>
<g>
	<g>
		<path class="st1" d="M189.3,400.2c-79.5,0-144.2-64.7-144.2-144.2c0-79.5,64.7-144.2,144.2-144.2c79.5,0,144.2,64.7,144.2,144.2
			C333.5,335.5,268.8,400.2,189.3,400.2z M189.3,141.8c-63,0-114.2,51.2-114.2,114.2c0,63,51.2,114.2,114.2,114.2
			c63,0,114.2-51.2,114.2-114.2C303.5,193,252.3,141.8,189.3,141.8z"/>
	</g>
	<g>
		<path class="st2" d="M256,400.2c-79.5,0-144.2-64.7-144.2-144.2c0-79.5,64.7-144.2,144.2-144.2c79.5,0,144.2,64.7,144.2,144.2
			C400.2,335.5,335.5,400.2,256,400.2z M256,141.8c-63,0-114.2,51.2-114.2,114.2c0,63,51.2,114.2,114.2,114.2
			c63,0,114.2-51.2,114.2-114.2C370.2,193,319,141.8,256,141.8z"/>
	</g>
	<g>
		<path class="st3" d="M322.7,400.2c-79.5,0-144.2-64.7-144.2-144.2c0-79.5,64.7-144.2,144.2-144.2c79.5,0,144.2,64.7,144.2,144.2
			C466.9,335.5,402.2,400.2,322.7,400.2z M322.7,141.8c-63,0-114.2,51.2-114.2,114.2c0,63,51.2,114.2,114.2,114.2
			S436.9,319,436.9,256C436.9,193,385.7,141.8,322.7,141.8z"/>
	</g>
</g>
<g>
	<path class="st4" d="M170.5,475.6l2.2-17.2h3.6c1.9,0,3.3,0.1,4.2,0.4s1.7,0.6,2.5,1.2c0.9,0.7,1.6,1.6,2.1,2.7s0.7,2.3,0.7,3.7
		s-0.2,2.4-0.6,3.5s-0.9,2.1-1.7,2.9c-0.5,0.6-1.1,1.1-1.7,1.5s-1.3,0.7-2.1,0.9c-0.5,0.1-1,0.2-1.6,0.3s-1.3,0.1-2.1,0.1H170.5
		L170.5,475.6z M173.5,473.1h1c1.9,0,3.3-0.1,4.1-0.3s1.5-0.5,2.1-0.9c0.8-0.6,1.4-1.3,1.8-2.3s0.7-2,0.7-3.1s-0.2-1.9-0.5-2.7
		s-0.9-1.4-1.5-1.9c-0.5-0.4-1.1-0.7-1.7-0.8s-1.7-0.2-3.2-0.2h-1.1L173.5,473.1L173.5,473.1z"/>
	<path class="st4" d="M194.7,472.2l1.8,1.4c-0.6,0.9-1.4,1.5-2.1,1.9s-1.6,0.6-2.6,0.6c-1.6,0-3-0.5-4-1.5s-1.5-2.3-1.5-3.9
		s0.6-3.5,1.8-4.7s2.7-1.8,4.5-1.8s2.7,0.5,3.6,1.4s1.3,2.2,1.3,3.8v0.5c0,0.2,0,0.5-0.1,0.7h-8.5c0,1,0.3,1.8,0.8,2.4
		s1.2,0.9,2,0.9s1.1-0.1,1.7-0.4S194.4,472.7,194.7,472.2z M189.1,468.7h5.7c0-0.8-0.3-1.3-0.7-1.8s-1-0.7-1.8-0.7s-1.6,0.2-2.1,0.7
		S189.3,468,189.1,468.7L189.1,468.7z"/>
	<path class="st4" d="M212.3,475.6l0.8-6.4c0-0.1,0-0.3,0.1-0.4s0-0.3,0-0.4c0-0.7-0.2-1.3-0.5-1.7s-0.8-0.6-1.3-0.6
		c-0.9,0-1.6,0.3-2.1,1s-0.8,1.7-1,3.1l-0.7,5.5H205l0.8-6.4v-0.8c0-0.8-0.2-1.4-0.5-1.8s-0.8-0.6-1.4-0.6c-0.9,0-1.5,0.3-2,1
		s-0.8,1.7-1,3.1l-0.7,5.5h-2.5l1.5-11.1h2.5l-0.4,1.3c0.6-0.6,1.2-1,1.8-1.3s1.3-0.4,2-0.4s1.5,0.2,2,0.5s0.9,0.9,1.2,1.6
		c0.7-0.7,1.3-1.2,2-1.6s1.4-0.5,2.2-0.5s1.9,0.3,2.5,0.9s0.9,1.5,0.9,2.6v0.8c0,0.3-0.1,0.7-0.1,1.3l-0.8,5.9h-2.7V475.6z"/>
	<path class="st4" d="M222.9,464.1c1.7,0,3.1,0.5,4.1,1.5s1.5,2.4,1.5,4s-0.6,3.4-1.8,4.6s-2.8,1.8-4.7,1.8s-3.1-0.5-4.1-1.5
		s-1.5-2.3-1.5-4s0.6-3.5,1.8-4.7S221,464.1,222.9,464.1L222.9,464.1z M223,466.3c-1.1,0-2,0.4-2.7,1.2s-1.1,1.8-1.1,3.1
		s0.3,1.8,0.8,2.4s1.3,0.9,2.2,0.9s2.1-0.4,2.8-1.1s1-1.8,1-3.1s-0.3-1.8-0.8-2.4S223.9,466.3,223,466.3z"/>
	<path class="st4" d="M234.3,472.6l1.9-1.6c0.5,0.9,1,1.6,1.5,2s1.2,0.6,1.9,0.6s1.6-0.3,2.2-0.8s0.8-1.2,0.8-2.1s-0.1-1.1-0.4-1.5
		s-0.8-0.8-1.6-1.3c-0.2-0.1-0.4-0.2-0.7-0.4c-1.3-0.7-2.1-1.3-2.6-1.8c-0.3-0.4-0.6-0.8-0.7-1.2s-0.2-1-0.2-1.5
		c0-1.5,0.5-2.7,1.5-3.7s2.2-1.4,3.8-1.4s2,0.2,2.8,0.6s1.4,1.1,2,1.9l-1.6,1.5c-0.4-0.6-0.8-1.1-1.3-1.4s-1-0.5-1.6-0.5
		s-1.5,0.2-2.1,0.7s-0.8,1.1-0.8,1.9s0.8,1.8,2.3,2.6c0.4,0.2,0.7,0.4,0.9,0.5c1.2,0.7,2,1.4,2.5,2.1s0.7,1.6,0.7,2.7
		c0,1.6-0.5,2.9-1.6,3.9s-2.5,1.4-4.3,1.4s-2.3-0.3-3.1-0.8S234.8,473.8,234.3,472.6L234.3,472.6z"/>
	<path class="st4" d="M252.4,464.1c1.7,0,3.1,0.5,4.1,1.5s1.5,2.4,1.5,4s-0.6,3.4-1.8,4.6c-1.2,1.2-2.8,1.8-4.7,1.8
		s-3.1-0.5-4.1-1.5s-1.5-2.3-1.5-4s0.6-3.5,1.8-4.7S250.6,464.1,252.4,464.1L252.4,464.1z M252.5,466.3c-1.1,0-2,0.4-2.7,1.2
		s-1.1,1.8-1.1,3.1s0.3,1.8,0.8,2.4s1.3,0.9,2.2,0.9s2.1-0.4,2.8-1.1s1-1.8,1-3.1s-0.3-1.8-0.8-2.4S253.4,466.3,252.5,466.3z"/>
	<path class="st4" d="M259.8,464.5h2.5l-0.6,4.7c0,0.1,0,0.2-0.1,0.4c-0.1,1-0.2,1.7-0.2,2c0,0.7,0.2,1.3,0.6,1.7s1,0.6,1.7,0.6
		c1,0,1.8-0.3,2.3-0.8s0.8-1.6,1-3.3l0.7-5.2h2.5l-0.8,5.6c-0.2,1.5-0.4,2.5-0.7,3.1s-0.6,1.1-1,1.5c-0.5,0.4-1.1,0.8-1.8,1
		s-1.5,0.3-2.4,0.3c-1.6,0-2.7-0.4-3.5-1.1s-1.2-1.8-1.2-3.1s0.1-1.1,0.2-2.2l0,0L259.8,464.5z"/>
	<path class="st4" d="M278.5,475.6l0.8-6.4v-1c0-0.7-0.2-1.3-0.5-1.7s-0.9-0.6-1.5-0.6c-1,0-1.9,0.3-2.5,1s-1,1.7-1.2,3.1l-0.7,5.4
		h-2.5l1.5-11.1h2.4l-0.2,1.3c0.6-0.6,1.3-1,2-1.3s1.4-0.4,2.2-0.4s2,0.3,2.7,0.9s1,1.4,1,2.5v1c0,0.4-0.1,0.8-0.1,1.3l-0.8,5.9
		h-2.6L278.5,475.6z"/>
	<path class="st4" d="M293.3,475.6h-2.5v-1.1c-0.4,0.5-0.9,0.9-1.5,1.2s-1.2,0.4-1.9,0.4c-1.5,0-2.6-0.5-3.4-1.4s-1.2-2.2-1.2-3.9
		s0.5-3.6,1.5-4.8s2.2-1.8,3.8-1.8s1.5,0.2,2.1,0.5s1.2,0.8,1.7,1.4l1.1-8.6h2.5L293.3,475.6L293.3,475.6z M285.5,470.4
		c0,1.1,0.2,1.9,0.7,2.5s1.2,0.9,2.1,0.9s1.8-0.4,2.4-1.2s0.9-1.9,0.9-3.4s-0.3-1.7-0.8-2.3s-1.2-0.8-2.1-0.8s-1.7,0.4-2.3,1.2
		S285.5,469.1,285.5,470.4L285.5,470.4z"/>
	<path class="st4" d="M295.6,475.6l1.2-9h-1.9l0.3-2.2h1.9l0.6-4.2h2.5l-0.5,4.2h2l-0.3,2.2h-2l-1.2,9H295.6z"/>
	<path class="st4" d="M308.4,466.7c-0.2-0.1-0.4-0.2-0.6-0.3s-0.4-0.1-0.6-0.1c-0.9,0-1.6,0.3-2.1,1s-0.9,1.7-1,3.1l-0.7,5.2h-2.5
		l1.5-11.1h2.4l-0.2,1.4c0.4-0.6,0.9-1.1,1.4-1.4s1.1-0.5,1.7-0.5s0.5,0,0.8,0.1s0.5,0.2,0.8,0.3L308.4,466.7L308.4,466.7z"/>
	<path class="st4" d="M318.5,475.6H316l0.2-1.2c-0.4,0.6-0.9,1-1.5,1.2s-1.2,0.4-2,0.4c-1.5,0-2.6-0.5-3.4-1.4s-1.2-2.2-1.2-3.9
		s0.5-3.6,1.5-4.8s2.2-1.8,3.8-1.8s1.4,0.2,2.1,0.5s1.2,0.8,1.8,1.4l0.2-1.5h2.5L318.5,475.6L318.5,475.6z M310.7,470.4
		c0,1.1,0.2,1.9,0.7,2.5s1.2,0.9,2.1,0.9s1.8-0.4,2.4-1.2s0.9-1.9,0.9-3.3s-0.3-1.7-0.8-2.3s-1.2-0.8-2.1-0.8s-1.7,0.4-2.3,1.2
		S310.7,469.1,310.7,470.4L310.7,470.4z"/>
	<path class="st4" d="M330,467.6c-0.5-0.4-1-0.8-1.6-1s-1.1-0.3-1.7-0.3c-1.1,0-2.1,0.4-2.8,1.2s-1.1,1.8-1.1,3.1s0.3,1.8,0.8,2.4
		s1.3,0.9,2.2,0.9s1.1-0.1,1.7-0.3s1.2-0.5,1.8-0.9l-0.5,2.7c-0.5,0.2-0.9,0.4-1.5,0.5s-1,0.2-1.6,0.2c-1.7,0-3-0.5-4-1.5
		s-1.5-2.3-1.5-3.9s0.6-3.5,1.8-4.7s2.8-1.8,4.7-1.8s1.4,0.1,2,0.3s1.2,0.5,1.8,0.9L330,467.6L330,467.6z"/>
	<path class="st4" d="M330.3,475.6l2.4-18.2h2.5l-1.6,11.8l5.6-4.7h3.3l-6.1,5.1l4.7,6h-3l-4.6-5.9l-0.8,5.9L330.3,475.6
		L330.3,475.6z"/>
</g>
<g>
	<path class="st4" d="M90.4,214.1l5.9,78.1H86.2L83,246.7l-27.6,50.5l-15.3-50.5l-14.2,45.5H15.1l24.7-76.4l18.1,58.3l32.6-60H90.4z
		"/>
	<path class="st4" d="M149.3,248.7l-5.4,43.5h-10.2l0.6-4.7c-4.4,3.8-8.9,5.7-13.6,5.7s-10.5-2-14.1-5.9s-5.5-9-5.5-15.2
		s2.1-13.1,6.2-17.7c4.2-4.6,9.6-6.9,16.2-6.9c6.6,0,5.8,0.5,7.9,1.5c2.2,1,4.5,2.8,6.8,5.3l0.7-5.7h10.2L149.3,248.7z M136.8,269.2
		c0-3.9-1.1-7-3.3-9.4s-5.1-3.7-8.6-3.7s-7,1.5-9.6,4.5s-3.9,6.7-3.9,11.1s1.1,6.9,3.2,9.4c2.2,2.4,4.9,3.7,8.3,3.7s7-1.5,9.8-4.6
		C135.4,277.1,136.8,273.4,136.8,269.2z"/>
	<path class="st4" d="M167.2,248.7l-0.5,3.7c3.5-3.3,6.9-4.9,10.4-4.9s5.9,1.1,8.4,3.4l-6.5,8.4c-1.9-1.6-3.8-2.4-5.6-2.4
		s-2.4,0.3-3.4,0.8s-1.8,1.3-2.6,2.4c-0.7,1.1-1.3,2.5-1.8,4.2s-0.9,3.8-1.1,6.2l-2.7,21.7h-10.2l5.4-43.5L167.2,248.7L167.2,248.7z
		"/>
	<path class="st4" d="M229.4,248.7l-29.9,49.2L184,248.7h10.6l7.5,27.8l15.6-27.8H229.4L229.4,248.7z"/>
	<path class="st4" d="M234.7,274.1c0,3.2,1.1,5.8,3.3,7.9s5.1,3.1,8.6,3.1s8.4-1.8,11-5.4l7.6,4.2c-2.7,3.6-5.4,6.1-8.2,7.5
		c-2.8,1.4-6.4,2.2-10.6,2.2c-6.7,0-12.1-2-16.1-6s-6-9.3-6-15.9s2.2-12.8,6.6-17.5c4.4-4.7,9.9-7,16.6-7s11.6,2.1,15.3,6.3
		c3.8,4.2,5.7,9.9,5.7,17s0,1.9-0.1,3.6L234.7,274.1L234.7,274.1z M258.2,265.9c-1.1-6.7-4.8-10.1-11.1-10.1s-9.9,3.4-11.7,10.1
		h22.9H258.2z"/>
	<path class="st4" d="M290.4,214.2l-9.6,78.1h-10.2l9.6-78.1L290.4,214.2L290.4,214.2z"/>
	<path class="st4" d="M336.3,270c0,6.7-2.3,12.2-6.9,16.8c-4.6,4.5-10.3,6.8-17,6.8s-12.8-2.1-17.3-6.4s-6.7-9.8-6.7-16.4
		s2.3-12.4,7-16.8c4.7-4.5,10.5-6.7,17.6-6.7s12.5,2.1,16.9,6.4c4.4,4.2,6.6,9.7,6.6,16.4L336.3,270z M326,269.5
		c0-4.2-1.2-7.5-3.7-9.9c-2.4-2.5-5.6-3.8-9.6-3.8s-7.5,1.4-10.2,4.2s-4,6.4-4,10.7s1.3,7.8,3.8,10.4c2.5,2.7,5.8,4,9.8,4
		s7.3-1.5,9.9-4.4s3.9-6.6,3.9-11.2H326z"/>
	<path class="st4" d="M380.9,248.7l-3.1,25.3c-0.2,2.2-0.6,4-0.9,5.6c-0.4,1.6-0.8,2.9-1.2,4c-0.9,2.1-2.3,3.9-4.3,5.5
		c-3.5,2.7-8,4.1-13.6,4.1s-9.6-1.4-12.8-4.1c-3.2-2.8-4.8-6.5-4.8-11.1s0-1.5,0.1-2.5c0-1,0.2-2,0.3-3.3l2.9-23.5h10.2l-3,24.4
		c-0.1,1-0.2,2-0.3,2.8c0,0.8,0,1.4,0,2c0,4.6,2.7,6.9,8.1,6.9s5.1-0.8,6.5-2.3s2.3-4.2,2.8-7.9l3.2-25.8h10.2L380.9,248.7z"/>
	<path class="st4" d="M413.9,253.5l-5.8,5.8c-2.7-2.4-5.2-3.7-7.5-3.7s-2.9,0.4-3.9,1.3c-1,0.9-1.5,2-1.5,3.3s0.4,2.3,1.3,3.2
		c0.9,0.9,2.7,2.1,5.4,3.6c3.9,2.2,6.5,4.2,7.9,6s2.1,4.1,2.1,7c0,4.1-1.4,7.4-4.3,9.9s-6.7,3.7-11.4,3.7s-11.7-2.9-15.9-8.6
		l6.7-4.7c2.7,3.3,5.7,4.9,8.8,4.9s3.2-0.5,4.2-1.4c1.1-0.9,1.6-2.1,1.6-3.6s-0.4-2.3-1.3-3.1c-0.4-0.4-1.2-1-2.3-1.7
		c-1.1-0.7-2.5-1.6-4.4-2.5c-3.3-1.8-5.5-3.6-6.8-5.3c-1.3-1.8-1.9-4-1.9-6.7c0-3.9,1.4-7.2,4.3-9.8s6.6-3.9,11-3.9
		s9.5,2.1,13.6,6.2L413.9,253.5z"/>
	<path class="st4" d="M472.9,255.1l17.8,37.2h-11.1l-13.3-28.4l-19.7,28.4h-12.4l27.1-38.3l-15.7-33.1h11.2l11,24.5l16.7-24.5H497
		L472.9,255.1L472.9,255.1z"/>
</g>
</svg>
