<?xml version="1.0" encoding="UTF-8"?>
<svg xmlns="http://www.w3.org/2000/svg" version="1.1" viewBox="0 0 512 512">
  <defs>
    <style>
      .cls-1 {
        stroke: #ffce00;
      }

      .cls-1, .cls-2, .cls-3 {
        fill: none;
        stroke-linecap: round;
        stroke-linejoin: round;
        stroke-width: 30px;
      }

      .cls-2 {
        stroke: #bc3b3b;
      }

      .cls-3 {
        stroke: #3c70ba;
      }

      .cls-4 {
        fill: #0c0c0c;
      }

      .cls-5 {
        fill: #f7f7f9;
      }
    </style>
  </defs>
  <!-- Generator: Adobe Illustrator 28.7.0, SVG Export Plug-In . SVG Version: 1.2.0 Build 136)  -->
  <g>
    <g id="_레이어_1" data-name="레이어_1">
      <rect class="cls-4" width="512" height="512"/>
      <g>
        <circle class="cls-3" cx="189.3" cy="256" r="129.2"/>
        <circle class="cls-2" cx="256" cy="256" r="129.2"/>
        <circle class="cls-1" cx="322.7" cy="256" r="129.2"/>
      </g>
      <g>
        <path class="cls-5" d="M170.5,475.6l2.2-17.2h3.6c1.9,0,3.3.1,4.2.4s1.7.6,2.5,1.2c.9.7,1.6,1.6,2.1,2.7s.7,2.3.7,3.7-.2,2.4-.6,3.5-.9,2.1-1.7,2.9c-.5.6-1.1,1.1-1.7,1.5s-1.3.7-2.1.9c-.5.1-1,.2-1.6.3s-1.3.1-2.1.1h-5.5ZM173.5,473.1h1c1.9,0,3.3-.1,4.1-.3s1.5-.5,2.1-.9c.8-.6,1.4-1.3,1.8-2.3s.7-2,.7-3.1-.2-1.9-.5-2.7-.9-1.4-1.5-1.9c-.5-.4-1.1-.7-1.7-.8s-1.7-.2-3.2-.2h-1.1l-1.7,12.2Z"/>
        <path class="cls-5" d="M194.7,472.2l1.8,1.4c-.6.9-1.4,1.5-2.1,1.9s-1.6.6-2.6.6c-1.6,0-3-.5-4-1.5s-1.5-2.3-1.5-3.9.6-3.5,1.8-4.7,2.7-1.8,4.5-1.8,2.7.5,3.6,1.4,1.3,2.2,1.3,3.8v.5c0,.2,0,.5-.1.7h-8.5c0,1,.3,1.8.8,2.4s1.2.9,2,.9,1.1-.1,1.7-.4,1-.8,1.3-1.3ZM189.1,468.7h5.7c0-.8-.3-1.3-.7-1.8s-1-.7-1.8-.7-1.6.2-2.1.7-.9,1.1-1.1,1.8Z"/>
        <path class="cls-5" d="M212.3,475.6l.8-6.4c0-.1,0-.3.1-.4s0-.3,0-.4c0-.7-.2-1.3-.5-1.7s-.8-.6-1.3-.6c-.9,0-1.6.3-2.1,1s-.8,1.7-1,3.1l-.7,5.5h-2.6l.8-6.4v-.8c0-.8-.2-1.4-.5-1.8s-.8-.6-1.4-.6c-.9,0-1.5.3-2,1s-.8,1.7-1,3.1l-.7,5.5h-2.5l1.5-11.1h2.5l-.4,1.3c.6-.6,1.2-1,1.8-1.3s1.3-.4,2-.4,1.5.2,2,.5.9.9,1.2,1.6c.7-.7,1.3-1.2,2-1.6s1.4-.5,2.2-.5,1.9.3,2.5.9.9,1.5.9,2.6v.8c0,.3-.1.7-.1,1.3l-.8,5.9h-2.7Z"/>
        <path class="cls-5" d="M222.9,464.1c1.7,0,3.1.5,4.1,1.5s1.5,2.4,1.5,4-.6,3.4-1.8,4.6-2.8,1.8-4.7,1.8-3.1-.5-4.1-1.5-1.5-2.3-1.5-4,.6-3.5,1.8-4.7,2.8-1.7,4.7-1.7ZM223,466.3c-1.1,0-2,.4-2.7,1.2s-1.1,1.8-1.1,3.1.3,1.8.8,2.4,1.3.9,2.2.9,2.1-.4,2.8-1.1,1-1.8,1-3.1-.3-1.8-.8-2.4-1.3-1-2.2-1Z"/>
        <path class="cls-5" d="M234.3,472.6l1.9-1.6c.5.9,1,1.6,1.5,2s1.2.6,1.9.6,1.6-.3,2.2-.8.8-1.2.8-2.1-.1-1.1-.4-1.5-.8-.8-1.6-1.3c-.2-.1-.4-.2-.7-.4-1.3-.7-2.1-1.3-2.6-1.8-.3-.4-.6-.8-.7-1.2s-.2-1-.2-1.5c0-1.5.5-2.7,1.5-3.7s2.2-1.4,3.8-1.4,2,.2,2.8.6,1.4,1.1,2,1.9l-1.6,1.5c-.4-.6-.8-1.1-1.3-1.4s-1-.5-1.6-.5-1.5.2-2.1.7-.8,1.1-.8,1.9.8,1.8,2.3,2.6c.4.2.7.4.9.5,1.2.7,2,1.4,2.5,2.1s.7,1.6.7,2.7c0,1.6-.5,2.9-1.6,3.9s-2.5,1.4-4.3,1.4-2.3-.3-3.1-.8-1.7-1.2-2.2-2.4Z"/>
        <path class="cls-5" d="M252.4,464.1c1.7,0,3.1.5,4.1,1.5s1.5,2.4,1.5,4-.6,3.4-1.8,4.6c-1.2,1.2-2.8,1.8-4.7,1.8s-3.1-.5-4.1-1.5-1.5-2.3-1.5-4,.6-3.5,1.8-4.7,2.9-1.7,4.7-1.7ZM252.5,466.3c-1.1,0-2,.4-2.7,1.2s-1.1,1.8-1.1,3.1.3,1.8.8,2.4,1.3.9,2.2.9,2.1-.4,2.8-1.1,1-1.8,1-3.1-.3-1.8-.8-2.4-1.3-1-2.2-1Z"/>
        <path class="cls-5" d="M259.8,464.5h2.5l-.6,4.7c0,.1,0,.2-.1.4-.1,1-.2,1.7-.2,2,0,.7.2,1.3.6,1.7s1,.6,1.7.6c1,0,1.8-.3,2.3-.8s.8-1.6,1-3.3l.7-5.2h2.5l-.8,5.6c-.2,1.5-.4,2.5-.7,3.1s-.6,1.1-1,1.5c-.5.4-1.1.8-1.8,1s-1.5.3-2.4.3c-1.6,0-2.7-.4-3.5-1.1s-1.2-1.8-1.2-3.1.1-1.1.2-2.2h0l.8-5.2Z"/>
        <path class="cls-5" d="M278.5,475.6l.8-6.4v-1c0-.7-.2-1.3-.5-1.7s-.9-.6-1.5-.6c-1,0-1.9.3-2.5,1s-1,1.7-1.2,3.1l-.7,5.4h-2.5l1.5-11.1h2.4l-.2,1.3c.6-.6,1.3-1,2-1.3s1.4-.4,2.2-.4,2,.3,2.7.9,1,1.4,1,2.5v1c0,.4-.1.8-.1,1.3l-.8,5.9h-2.6Z"/>
        <path class="cls-5" d="M293.3,475.6h-2.5v-1.1c-.4.5-.9.9-1.5,1.2s-1.2.4-1.9.4c-1.5,0-2.6-.5-3.4-1.4s-1.2-2.2-1.2-3.9.5-3.6,1.5-4.8,2.2-1.8,3.8-1.8,1.5.2,2.1.5,1.2.8,1.7,1.4l1.1-8.6h2.5l-2.2,18.1ZM285.5,470.4c0,1.1.2,1.9.7,2.5s1.2.9,2.1.9,1.8-.4,2.4-1.2.9-1.9.9-3.4-.3-1.7-.8-2.3-1.2-.8-2.1-.8-1.7.4-2.3,1.2-.9,1.8-.9,3.1Z"/>
        <path class="cls-5" d="M295.6,475.6l1.2-9h-1.9l.3-2.2h1.9l.6-4.2h2.5l-.5,4.2h2l-.3,2.2h-2l-1.2,9h-2.6Z"/>
        <path class="cls-5" d="M308.4,466.7c-.2-.1-.4-.2-.6-.3s-.4-.1-.6-.1c-.9,0-1.6.3-2.1,1s-.9,1.7-1,3.1l-.7,5.2h-2.5l1.5-11.1h2.4l-.2,1.4c.4-.6.9-1.1,1.4-1.4s1.1-.5,1.7-.5.5,0,.8.1.5.2.8.3l-.9,2.3Z"/>
        <path class="cls-5" d="M318.5,475.6h-2.5l.2-1.2c-.4.6-.9,1-1.5,1.2s-1.2.4-2,.4c-1.5,0-2.6-.5-3.4-1.4s-1.2-2.2-1.2-3.9.5-3.6,1.5-4.8,2.2-1.8,3.8-1.8,1.4.2,2.1.5,1.2.8,1.8,1.4l.2-1.5h2.5l-1.5,11.1ZM310.7,470.4c0,1.1.2,1.9.7,2.5s1.2.9,2.1.9,1.8-.4,2.4-1.2.9-1.9.9-3.3-.3-1.7-.8-2.3-1.2-.8-2.1-.8-1.7.4-2.3,1.2-.9,1.7-.9,3Z"/>
        <path class="cls-5" d="M330,467.6c-.5-.4-1-.8-1.6-1s-1.1-.3-1.7-.3c-1.1,0-2.1.4-2.8,1.2s-1.1,1.8-1.1,3.1.3,1.8.8,2.4,1.3.9,2.2.9,1.1-.1,1.7-.3,1.2-.5,1.8-.9l-.5,2.7c-.5.2-.9.4-1.5.5s-1,.2-1.6.2c-1.7,0-3-.5-4-1.5s-1.5-2.3-1.5-3.9.6-3.5,1.8-4.7,2.8-1.8,4.7-1.8,1.4.1,2,.3,1.2.5,1.8.9l-.5,2.2Z"/>
        <path class="cls-5" d="M330.3,475.6l2.4-18.2h2.5l-1.6,11.8,5.6-4.7h3.3l-6.1,5.1,4.7,6h-3l-4.6-5.9-.8,5.9h-2.4Z"/>
      </g>
      <g>
        <path class="cls-5" d="M90.4,214.1l5.9,78.1h-10.1l-3.2-45.5-27.6,50.5-15.3-50.5-14.2,45.5h-10.8l24.7-76.4,18.1,58.3,32.6-60Z"/>
        <path class="cls-5" d="M149.3,248.7l-5.4,43.5h-10.2l.6-4.7c-4.4,3.8-8.9,5.7-13.6,5.7s-10.5-2-14.1-5.9c-3.6-3.9-5.5-9-5.5-15.2s2.1-13.1,6.2-17.7c4.2-4.6,9.6-6.9,16.2-6.9s5.8.5,7.9,1.5c2.2,1,4.5,2.8,6.8,5.3l.7-5.7h10.2ZM136.8,269.2c0-3.9-1.1-7-3.3-9.4-2.2-2.4-5.1-3.7-8.6-3.7s-7,1.5-9.6,4.5c-2.6,3-3.9,6.7-3.9,11.1s1.1,6.9,3.2,9.4c2.2,2.4,4.9,3.7,8.3,3.7s7-1.5,9.8-4.6c2.7-3.1,4.1-6.8,4.1-11Z"/>
        <path class="cls-5" d="M167.2,248.7l-.5,3.7c3.5-3.3,6.9-4.9,10.4-4.9s5.9,1.1,8.4,3.4l-6.5,8.4c-1.9-1.6-3.8-2.4-5.6-2.4s-2.4.3-3.4.8c-1,.5-1.8,1.3-2.6,2.4-.7,1.1-1.3,2.5-1.8,4.2-.5,1.7-.9,3.8-1.1,6.2l-2.7,21.7h-10.2l5.4-43.5h10.2Z"/>
        <path class="cls-5" d="M229.4,248.7l-29.9,49.2-15.5-49.2h10.6l7.5,27.8,15.6-27.8h11.7Z"/>
        <path class="cls-5" d="M234.7,274.1c0,3.2,1.1,5.8,3.3,7.9,2.2,2.1,5.1,3.1,8.6,3.1s8.4-1.8,11-5.4l7.6,4.2c-2.7,3.6-5.4,6.1-8.2,7.5-2.8,1.4-6.4,2.2-10.6,2.2-6.7,0-12.1-2-16.1-6-4-4-6-9.3-6-15.9s2.2-12.8,6.6-17.5c4.4-4.7,9.9-7,16.6-7s11.6,2.1,15.3,6.3c3.8,4.2,5.7,9.9,5.7,17s0,1.9-.1,3.6h-33.6ZM258.2,265.9c-1.1-6.7-4.8-10.1-11.1-10.1s-9.9,3.4-11.7,10.1h22.9Z"/>
        <path class="cls-5" d="M290.4,214.2l-9.6,78.1h-10.2l9.6-78.1h10.2Z"/>
        <path class="cls-5" d="M336.3,270c0,6.7-2.3,12.2-6.9,16.8-4.6,4.5-10.3,6.8-17,6.8s-12.8-2.1-17.3-6.4c-4.5-4.3-6.7-9.8-6.7-16.4s2.3-12.4,7-16.8c4.7-4.5,10.5-6.7,17.6-6.7s12.5,2.1,16.9,6.4c4.4,4.2,6.6,9.7,6.6,16.4ZM326,269.5c0-4.2-1.2-7.5-3.7-9.9-2.4-2.5-5.6-3.8-9.6-3.8s-7.5,1.4-10.2,4.2c-2.7,2.8-4,6.4-4,10.7s1.3,7.8,3.8,10.4c2.5,2.7,5.8,4,9.8,4s7.3-1.5,9.9-4.4c2.6-2.9,3.9-6.6,3.9-11.2Z"/>
        <path class="cls-5" d="M380.9,248.7l-3.1,25.3c-.2,2.2-.6,4-.9,5.6-.4,1.6-.8,2.9-1.2,4-.9,2.1-2.3,3.9-4.3,5.5-3.5,2.7-8,4.1-13.6,4.1s-9.6-1.4-12.8-4.1c-3.2-2.8-4.8-6.5-4.8-11.1s0-1.5.1-2.5c0-1,.2-2,.3-3.3l2.9-23.5h10.2l-3,24.4c-.1,1-.2,2-.3,2.8,0,.8,0,1.4,0,2,0,4.6,2.7,6.9,8.1,6.9s5.1-.8,6.5-2.3c1.4-1.5,2.3-4.2,2.8-7.9l3.2-25.8h10.2Z"/>
        <path class="cls-5" d="M413.9,253.5l-5.8,5.8c-2.7-2.4-5.2-3.7-7.5-3.7s-2.9.4-3.9,1.3c-1,.9-1.5,2-1.5,3.3s.4,2.3,1.3,3.2c.9.9,2.7,2.1,5.4,3.6,3.9,2.2,6.5,4.2,7.9,6,1.4,1.8,2.1,4.1,2.1,7,0,4.1-1.4,7.4-4.3,9.9-2.9,2.5-6.7,3.7-11.4,3.7s-11.7-2.9-15.9-8.6l6.7-4.7c2.7,3.3,5.7,4.9,8.8,4.9s3.2-.5,4.2-1.4c1.1-.9,1.6-2.1,1.6-3.6s-.4-2.3-1.3-3.1c-.4-.4-1.2-1-2.3-1.7-1.1-.7-2.5-1.6-4.4-2.5-3.3-1.8-5.5-3.6-6.8-5.3-1.3-1.8-1.9-4-1.9-6.7,0-3.9,1.4-7.2,4.3-9.8,2.9-2.6,6.6-3.9,11-3.9s9.5,2.1,13.6,6.2Z"/>
        <path class="cls-5" d="M472.9,255.1l17.8,37.2h-11.1l-13.3-28.4-19.7,28.4h-12.4l27.1-38.3-15.7-33.1h11.2l11,24.5,16.7-24.5h12.5l-24.1,34.2Z"/>
      </g>
    </g>
  </g>
</svg>